<svg height="36" viewBox="0 0 40 36" width="40" xmlns="http://www.w3.org/2000/svg"><g fill="#326273" transform="translate(0 .444444)"><path d="m9.00133508 10.2509683v-.223937h-1.28590501v.223937c0 .3830326.00964428.7660652.02828991 1.1470924l1.2846191-.0681838c-.01735971-.3589678-.027004-.7179355-.027004-1.0789086z"/><path d="m9.13056853 12.6247008-1.27754663.1517424c.36776884 3.3670771 1.49679344 6.6579488 3.2642699 9.5156527l1.0814461-.7232832c-1.6613893-2.6865759-2.72161797-5.7795808-3.06816937-8.9441119z"/><path d="m23.6998723 3.48405913c-1.1135937.78210844-2.4168585 1.19522213-3.7683446 1.19522213-1.3514862 0-2.654108-.41311369-3.7677017-1.19455366l-.7194639 1.10832119c1.327054.93117697 2.8784984 1.42316997 4.4871656 1.42316997 1.6086671 0 3.1601115-.491993 4.4878085-1.42383844z"/><path d="m5.78657255 22.7279375h-1.28590501c0 2.5796209-2.01951382 4.6792813-4.50066754 4.6792813v1.3369375c2.48115372 0 4.50066754 2.0996603 4.50066754 4.6792812h1.28590501c0-2.5796209 2.01951382-4.6792812 4.50066755-4.6792812v-1.3369375c-2.48115373 0-4.50066755-2.0996604-4.50066755-4.6792813zm-.64295251 7.9514358c-.55293915-1.1163428-1.43056932-2.0288026-2.5043-2.6036858 1.07373068-.5748831 1.95136085-1.4873429 2.5043-2.6036858.55293916 1.1163429 1.43056933 2.0288027 2.50430001 2.6036858-1.07373068.5748832-1.95136085 1.487343-2.50430001 2.6036858z"/><path d="m35.3623878 5.34775001h-1.231254c-1.2177521-3.14915629-4.1984799-5.34775001-7.5759094-5.34775001-1.5945222 0-3.0938875.44854253-4.3360717 1.29616091-1.3752754.941204-3.1993317.941204-4.57525 0-1.2415413-.84761838-2.7409066-1.29616091-4.3360717-1.29616091-4.50195348 0-8.16421096 3.807598-8.16421096 8.4882162v1.7627521c0 4.7929209 1.31805264 9.4561589 3.81077951 13.487694 1.34119895 2.1691811 2.32620215 4.5375659 2.92800575 7.0389759l.6995323 2.910513c.2456078 1.025431 1.1270957 1.7406926 2.1429607 1.7406926 1.1026635 0 2.0220856-.822885 2.1847526-1.956608l1.4421425-9.9989556c.1189462-.8188742.7831161-1.4138114 1.5797343-1.4138114.7966181 0 1.4607881.5949372 1.5790913 1.4138114l1.4421425 9.9989556c.1633099 1.133723 1.082732 1.956608 2.1853956 1.956608 1.0158649 0 1.8973528-.7152616 2.1429607-1.7406926l.7001752-2.910513c.6018036-2.5020785 1.5874498-4.8704633 2.9286487-7.0389759 1.4652888-2.3703902 2.5370906-5.0175265 3.1639693-7.764933-.000643.0233964.0025718.0461243.0025718.0695207h1.285905c0-2.5796209 2.0195138-4.6792812 4.5006675-4.6792812v-1.3369375c-2.4811537 0-4.5006675-2.09966038-4.5006675-4.67928129zm-5.5345352 17.66762909c-1.4177102 2.2928478-2.4580074 4.7955948-3.0938874 7.4387202l-.7008182 2.910513c-.1022295.4284885-.4706413.727294-.8949899.727294-.460997 0-.8448396-.3442614-.9129926-.8182058l-1.4421425-9.9989555c-.2134602-1.4793214-1.4132096-2.5522137-2.8514943-2.5522137-1.4382848 0-2.6380342 1.0728923-2.8514944 2.5522137l-1.4421425 9.9989555c-.06751.4739444-.4519956.8182058-.9129925.8182058-.4243487 0-.7927605-.2988055-.8962758-.727294l-.7001753-2.910513c-.6352371-2.6437939-1.6761772-5.1465409-3.0938874-7.4387202-2.35834984-3.8149512-3.60503474-8.2288503-3.60503474-12.7644108v-1.7627521c0-3.94329716 3.08552907-7.1512787 6.87830594-7.1512787 1.3431277 0 2.598171.3723371 3.6294669 1.07690316.9007764.61565972 1.9089259.92850309 2.9942298.92850309 1.0853038 0 2.0934533-.31284337 2.9935868-.92850309 1.0319388-.70456606 2.2869821-1.07690316 3.6301099-1.07690316 3.3922174 0 6.3189372 2.62775066 6.8011516 6.05900076l.027004.43517315c-.7972611 1.31621498-2.2040412 2.19591989-3.8075647 2.19591989v1.3369375c1.5096524 0 2.8450648.7794345 3.6616145 1.9686404-.433993 3.4279078-1.611882 6.7749308-3.4095772 9.6827699zm4.8915827-9.7161933c-.5529392-1.1163428-1.4305693-2.0288027-2.5043-2.6036858 1.0737307-.5748831 1.9513608-1.48734296 2.5043-2.60368577.5529392 1.11634281 1.4305693 2.02880267 2.5043 2.60368577-1.0737307.5748831-1.9513608 1.487343-2.5043 2.6036858z"/></g></svg>