<svg height="39" viewBox="0 0 40 39" width="40" xmlns="http://www.w3.org/2000/svg"><g fill="#326273" transform="translate(0 .713262)"><path d="m26.1911778 9.84612222c-.6676445 0-1.3346445.10092276-1.9823111.29661448l4.2733111-5.78090455-2.2839111-4.36183215h-6.1982667-6.1982667l-2.2839111 4.36183215 4.2733111 5.78090455c-.6483111-.19569172-1.3146666-.29661448-1.9823111-.29661448-3.6933111 0-6.69771109 2.86891388-6.69771109 6.39567178 0 3.9944487 1.25795556 7.8405902 3.63853329 11.1230412 1.4654667 2.021532 2.5255778 4.2566017 3.1506889 6.6424402l.6889111 2.6332223c.2332889.8910741 1.0684889 1.5132259 2.03 1.5132259 1.1535556 0 2.0918667-.8959971 2.0918667-1.997532v-7.8485902c0-.6787671.5780667-1.2307653 1.2888889-1.2307653s1.2888889.5519982 1.2888889 1.2307653v7.8485902c0 1.1015349.9383111 1.997532 2.0918667 1.997532.9615111 0 1.7967111-.6221518 2.0293555-1.5132259l.6889111-2.6332223c.6251111-2.3858385 1.6845778-4.6209082 3.1506889-6.6424402 2.3812222-3.282451 3.6391778-7.1285925 3.6391778-11.1230412 0-3.5267579-3.0044-6.39567178-6.6977111-6.39567178zm-4.7340889 1.88491698-.058.0467691 1.6890889-6.85474719h3.4013778zm-1.4570889.3507682-1.7638444-7.15874629h3.5276888zm6.6906222-8.38951157h-2.7369555l1.7103555-1.9599937zm-2.2671555-2.46153055-1.7883334 2.04983957-1.4313111-2.04983957zm-3.0495111 2.46153055h-2.7479112l1.3739556-1.96737829zm-2.5777778-2.46153055-1.4313111 2.04983957-1.7883334-2.04983957zm-4.4602.50153685 1.7103555 1.9599937h-2.7363111zm-.8255334 3.19075898h3.4013778l1.6890889 6.85413179-.0586444-.0479998zm14.6798 21.74085329c-1.5544 2.1439931-2.6783111 4.514447-3.3408 7.0449004l-.6889111 2.6332223c-.0902222.3421528-.4105111.5809212-.7797777.5809212-.4427334 0-.8029778-.3439989-.8029778-.7667667v-7.8485902c0-1.3575341-1.1561334-2.4615306-2.5777778-2.4615306s-2.5777778 1.1039965-2.5777778 2.4615306v7.8485902c0 .4227678-.3602444.7667667-.8029778.7667667-.3692666 0-.6895555-.2387684-.7797777-.5803058l-.6889111-2.6332223c-.6618445-2.5304534-1.7857556-4.9009073-3.3408-7.0449005-2.23106671-3.0762978-3.4097556-6.6799785-3.4097556-10.4227357 0-2.8479909 2.4263333-5.1649065 5.4088222-5.1649065 1.0678445 0 2.1408445.3236913 3.1042889.9366124l.6650667.5470751 1.0807333 1.4621492c-.8674222-.1667687-1.6942444-.4910754-2.436-.9692277l-.7211333 1.0203045c1.3307778.8578434 2.8858222 1.310765 4.4982222 1.310765s3.1674444-.4529216 4.4982222-1.310765l-.7211333-1.0203045c-.7417556.4781523-1.5685778.8030744-2.4366445.9698431l1.0807334-1.4621492.6650666-.5470751c.9640889-.6135365 2.0370889-.9372278 3.1049334-.9372278 2.9824889 0 5.4088222 2.3169156 5.4088222 5.1649065 0 3.7427572-1.1786889 7.3464379-3.4097556 10.4221204z"/><path d="m6.222222 6.211071h1v1h-1z"/><path d="m4.444444 7.098367h1v1h-1z"/><path d="m6.222222 8.872959h1v1h-1z"/><path d="m7.111111 7.098367h1v1h-1z"/><path d="m6 26.6188769h-1.33333333c0 2.3540515-2.094 4.2701116-4.66666667 4.2701116v1.2200318c2.57266667 0 4.66666667 1.91606 4.66666667 4.2701115h1.33333333c0-2.3540515 2.094-4.2701115 4.6666667-4.2701115v-1.2200318c-2.5726667 0-4.6666667-1.9160601-4.6666667-4.2701116zm-.66666667 7.2561395c-.57333333-1.0187266-1.48333333-1.8513983-2.59666666-2.376012 1.11333333-.5246137 2.02333333-1.3572855 2.59666666-2.3760121.57333334 1.0187266 1.48333334 1.8513984 2.59666667 2.3760121-1.11333333.5246137-2.02333333 1.3572854-2.59666667 2.376012z"/><path d="m35.3333333.8872959h-1.3333333c0 2.35405147-2.094 4.27011151-4.6666667 4.27011151v1.22003186c2.5726667 0 4.6666667 1.91606003 4.6666667 4.27011153h1.3333333c0-2.3540515 2.094-4.27011153 4.6666667-4.27011153v-1.22003186c-2.5726667 0-4.6666667-1.91606004-4.6666667-4.27011151zm-.6666666 7.25613948c-.5733334-1.0187266-1.4833334-1.85139834-2.5966667-2.37601204 1.1133333-.5246137 2.0233333-1.35728545 2.5966667-2.37601205.5733333 1.0187266 1.4833333 1.85139835 2.5966666 2.37601205-1.1133333.5246137-2.0233333 1.35728544-2.5966666 2.37601204z"/><path d="m32 29.280765h1v1h-1z"/><path d="m31.111111 30.168061h1v1h-1z"/><path d="m32 31.055356h1v1h-1z"/><path d="m33.777778 30.168061h1v1h-1z"/></g></svg>