<svg height="41" viewBox="0 0 40 41" width="40" xmlns="http://www.w3.org/2000/svg"><g fill="#326273" transform="translate(0 .442652)"><path d="m12.8904485 9.35030171h-1.2540849c0 2.23125849.783803 4.38481799 2.2071893 6.06506059l.9443259-.8527474c-1.2239868-1.4439079-1.8974303-3.2950884-1.8974303-5.21231319z"/><path d="m23.2098066 3.28524114c-2.0480786 1.61110459-4.6133164 1.6117524-6.6620374 0l-.7901934 1.02159708c1.2514608.98467189 2.6770211 1.50551149 4.1212121 1.50551149 1.4441909 0 2.8697513-.5208396 4.1212121-1.5061593z"/><path d="m23.1992834 39.6634658h16.8007166l-3.5620821-15.4335663c-.3372045-1.4592317-1.6188374-2.4789666-3.1173817-2.4789666h-7.5618262v-.5418542c.4037496-1.5603095 1.1722175-3.0252988 2.2337397-4.2375935 1.8600633-2.1264735 2.8851137-4.8523772 2.8851137-7.6767998v-3.68358445c0-3.09375034-2.517836-5.61110095-5.6121828-5.61110095-1.2598778 0-2.4775251.42990079-3.5217712 1.24364157-1.1498224.89626638-2.3380362.89626638-3.4878587 0-1.0436062-.81374078-2.2618933-1.24364157-3.5211313-1.24364157-3.0943468 0-5.61218283 2.51735061-5.61218283 5.61110095v3.68358445c0 2.8244226 1.02505043 5.5503263 2.88511373 7.6767998 1.0615222 1.2129344 1.8299901 2.677284 2.2337397 4.2375935v.5418542h-7.5618262c-1.49854433 0-2.78017724 1.0197349-3.11738171 2.4796063l-3.56208209 15.4329266h16.8007166v-1.2794666h-15.19211693l3.20056308-13.86558c.20155485-.8764346.97066257-1.4880197 1.87030105-1.4880197h7.5618262v1.2794666h1.91957v1.8213208l-.7307164.1042765.1810795 1.2660323.5496369-.0780475v1.266672l-.7307164.1042765.1810795 1.2660323.5496369-.0780475v1.266672l-.7307164.1042765.1810795 1.2660322.5496369-.0780474v1.2666719l-.7307164.1042766.1810795 1.2660322.5496369-.0780475v.9896675l3.83914 3.8383999 3.83914-3.8383999v-2.0861704l.7307164-.1042765-.1810795-1.2660322-.5496369.0780474v-1.2666719l.7307164-.1042766-.1810795-1.2660322-.5496369.0780475v-1.266672l.7307164-.1042765-.1810795-1.2660323-.5496369.0780475v-1.266672l.7307164-.1042765-.1810795-1.2660323-.5496369.0780475v-.7248179h1.91957v-1.2794666h7.5618262c.8989986 0 1.6681063.6115851 1.8703011 1.48738l3.200563 13.8662197h-15.1921169zm-.6398567-4.1032495-2.5594267 2.5589333-2.5594267-2.5589333v-.642932l5.1188534-.7312152zm0-2.6657687-5.1188534.7312151v-1.2666719l5.1188534-.7312152zm0-2.5589333-5.1188534.7312152v-1.266672l5.1188534-.7312152zm0-2.5589333-5.1188534.7312152v-1.266672l5.1188534-.7312152zm0-2.5589333-5.1188534.7312152v-1.6389968h5.1188534zm2.0763349-4.7455417h-2.0763349v1.2794666h1.91957v1.2788269h-.6398567-7.67828-.6398567v-1.2794666h5.75871v-1.2794667h-5.9154749c-.4779729-1.5961346-1.2963496-3.0892722-2.3930639-4.3431495-1.656589-1.8923311-2.5690246-4.3194794-2.5690246-6.8336313v-3.68358445c0-2.38812449 1.9432447-4.33163431 4.3324695-4.33163431.9725822 0 1.9176505.33649973 2.7341076.97303438 1.6111591 1.2557965 3.4520268 1.2557965 5.062546 0 .8164571-.63653465 1.7621653-.97303438 2.7341076-.97303438 2.3892248 0 4.3324695 1.94350982 4.3324695 4.33163431v3.68358445c0 2.5141519-.9124356 4.9413002-2.5690246 6.8342711-1.0967143 1.2538773-1.9157308 2.7470148-2.3930639 4.3431495z"/><path d="m11.636364 7.075904h1.212121v1.263554h-1.212121z"/></g></svg>