<svg clip-rule="evenodd" fill-rule="evenodd" stroke-linejoin="round" stroke-miterlimit="1.41421" viewBox="0 0 800 800" xmlns="http://www.w3.org/2000/svg" xmlns:xlink="http://www.w3.org/1999/xlink"><clipPath id="a"><path clip-rule="evenodd" d="m189.407 221.577 61.386 79.011 64.028 17.594 230.113 275.443 45.201 29.098-150.14 159.881v4.738h-411.356l.11-182.566-99.048-119.234 248.148-262.836"/></clipPath><circle cx="399.8823776" cy="400.00177072" fill="#68b9d6" r="400.00115952" stroke-width="1.08272"/><g clip-path="url(#a)" transform="matrix(1.08272 0 0 1.08272 -31.1268 -52.468)"><circle cx="398.08" cy="417.901" fill="#52a6c4" r="369.441"/></g><g fill="#fff"><path d="m400.058 221.094s105.702-59.325 159.016-59.325c55.392.003 102.717 46.195 101.421 101.421-5.84 105.797-20.55 211.896-41.979 317.582-7.033 32.838-27.779 57.212-59.442 57.212h-1.967c-60.963-3.422-83.222-81.395-100.582-125.209-13.757-46.214-41.376-53.874-50.989-54.838-.882-.088-3.67-.422-6.348-.422-2.637-.001-5.167.331-5.943.422-9.674 1.146-37.542 8.636-51.413 54.913-17.505 43.874-39.95 121.954-101.421 125.381-31.664 0-52.797-26.418-59.442-57.37-24.779-103.113-37.68-210.551-41.979-317.582-1.297-55.226 46.028-101.418 101.421-101.421 56.746 0 121.132 36.571 159.647 59.236z"/><path d="m667.914 264.848-.07 1.245-.07 1.245-.072 1.245-.072 1.244-.074 1.245-.074 1.245-.074 1.245-.076 1.245-.076 1.245-.078 1.244-.078 1.245-.078 1.245-.08 1.245-.08 1.245-.082 1.245-.082 1.245-.083 1.245-.083 1.245-.085 1.245-.085 1.246-.086 1.245-.087 1.245-.088 1.245-.088 1.245-.089 1.245-.09 1.245-.091 1.246-.092 1.245-.092 1.245-.093 1.245-.094 1.246-.095 1.245-.096 1.245-.096 1.246-.097 1.245-.098 1.245-.099 1.246-.099 1.245-.101 1.245-.101 1.246-.101 1.245-.103 1.245-.104 1.246-.104 1.245-.105 1.246-.105 1.245-.107 1.246-.107 1.245-.108 1.246-.109 1.245-.11 1.246-.11 1.245-.112 1.246-.111 1.245-.113 1.246-.114 1.245-.114 1.246-.115 1.245-.116 1.246-.116 1.245-.118 1.246-.118 1.246-.119 1.245-.119 1.246-.121 1.245-.121 1.246-.122 1.246-.123 1.245-.123 1.246-.124 1.245-.125 1.246-.126 1.246-.127 1.246-.255 2.491-.258 2.491-.261 2.491-.265 2.492-.267 2.491-.27 2.491-.274 2.491-.276 2.492-.279 2.491-.283 2.491-.285 2.492-.288 2.491-.291 2.491-.294 2.492-.297 2.491-.3 2.491-.303 2.491-.306 2.492-.309 2.491-.311 2.491-.315 2.491-.317 2.491-.321 2.491-.323 2.491-.326 2.491-.329 2.491-.332 2.491-.335 2.491-.337 2.491-.341 2.491-.343 2.49-.346 2.491-.349 2.491-.352 2.49-.354 2.491-.358 2.49-.36 2.491-.363 2.49-.366 2.491-.368 2.49-.371 2.49-.375 2.49-.377 2.49-.379 2.49-.383 2.49-.385 2.49-.388 2.489-.39 2.49-.394 2.49-.396 2.489-.399 2.489-.401 2.49-.404 2.489-.407 2.489-.41 2.489-.412 2.489-.415 2.489-.418 2.488-.42 2.489-.423 2.489-.426 2.488-.428 2.488-.431 2.488-.434 2.488-.436 2.488-.439 2.488-.441 2.488-.444 2.487-.447 2.488-.449 2.487-.452 2.487-.455 2.488-.457 2.486-.459 2.487-.462 2.487-.465 2.486-.468 2.487-.469 2.486-.473 2.486-.475 2.486-.477 2.486-.48 2.486-.483 2.485-.485 2.485-.487 2.486-.49 2.485-.493 2.485-.495 2.484-.498 2.485-.5 2.484-.511 2.529-.096.446-.09.41-.092.408-.092.409-.095.407-.095.407-.097.406-.098.405-.099.404-.101.404-.103.402-.103.402-.105.402-.107.4-.107.4-.109.399-.111.398-.112.397-.113.396-.114.396-.116.394-.117.394-.119.393-.12.392-.121.392-.123.39-.124.39-.125.388-.127.388-.128.387-.129.386-.131.385-.132.385-.134.383-.135.382-.136.382-.138.381-.139.379-.14.379-.142.378-.143.376-.144.376-.146.375-.147.374-.149.373-.15.372-.151.371-.153.37-.154.369-.155.368-.157.367-.158.366-.16.365-.161.364-.162.363-.163.362-.165.361-.167.36-.167.359-.169.357-.171.357-.172.355-.173.355-.174.353-.176.352-.178.352-.178.35-.18.349-.182.348-.183.346-.184.346-.185.344-.187.344-.189.342-.189.341-.191.34-.193.338-.194.338-.195.336-.197.335-.198.334-.199.333-.201.332-.202.33-.203.329-.205.328-.207.326-.207.326-.209.324-.211.323-.212.321-.213.321-.214.319-.216.317-.218.317-.219.315-.22.314-.221.312-.223.312-.225.309-.225.309-.227.307-.229.306-.23.305-.231.303-.233.301-.234.301-.235.299-.237.297-.239.296-.239.295-.241.293-.243.292-.244.291-.245.289-.246.287-.249.286-.249.285-.251.283-.252.282-.254.28-.255.279-.256.277-.258.275-.259.274-.261.273-.262.271-.263.27-.265.267-.266.267-.267.264-.269.264-.271.261-.271.26-.274.258-.274.257-.276.255-.277.254-.279.251-.28.251-.281.248-.283.247-.284.245-.286.243-.287.242-.288.24-.29.238-.291.237-.292.235-.294.233-.295.231-.297.229-.298.228-.299.226-.3.224-.302.223-.304.22-.304.219-.306.217-.308.215-.309.213-.31.211-.311.21-.313.207-.314.206-.315.204-.317.202-.318.2-.319.198-.321.196-.322.194-.324.192-.324.19-.326.189-.327.186-.329.184-.33.183-.331.18-.332.178-.334.176-.335.175-.336.172-.338.17-.339.168-.34.166-.341.164-.342.162-.344.16-.345.157-.347.156-.347.153-.349.152-.35.149-.351.147-.352.145-.354.142-.355.141-.356.138-.357.136-.358.134-.36.132-.361.13-.362.127-.363.125-.364.123-.365.121-.367.118-.367.116-.369.114-.37.112-.371.109-.372.107-.374.105-.374.102-.376.1-.376.098-.378.096-.379.093-.379.091-.381.089-.382.086-.383.084-.384.081-.386.08-.386.076-.387.075-.388.072-.389.07-.391.067-.391.065-.392.063-.394.06-.394.058-.395.055-.397.053-.397.05-.398.048-.399.046-.4.043-.402.041-.402.038-.403.036-.404.034-.404.031-.406.028-.407.026-.408.024-.408.021-.41.019-.41.016-.411.014-.413.011-.413.009-.414.006-.415.004-.404.001h-2.197l-.594-.035-.393-.025-.392-.027-.391-.028-.39-.031-.389-.032-.389-.035-.387-.036-.387-.038-.386-.04-.385-.041-.384-.044-.383-.045-.383-.048-.382-.049-.38-.05-.38-.053-.379-.055-.378-.056-.378-.058-.376-.06-.376-.062-.375-.063-.373-.066-.373-.067-.373-.068-.371-.071-.37-.072-.37-.074-.368-.076-.368-.078-.367-.079-.366-.081-.365-.083-.364-.085-.363-.086-.363-.088-.361-.09-.361-.091-.36-.093-.359-.095-.358-.096-.357-.098-.356-.1-.355-.102-.355-.103-.353-.105-.353-.106-.351-.108-.351-.11-.35-.111-.349-.113-.348-.114-.347-.117-.346-.117-.346-.12-.344-.121-.344-.122-.342-.124-.342-.126-.341-.127-.34-.129-.339-.13-.338-.132-.337-.134-.336-.135-.335-.136-.335-.138-.333-.14-.333-.141-.331-.142-.331-.144-.33-.146-.328-.146-.328-.149-.327-.15-.326-.151-.326-.153-.324-.154-.323-.156-.323-.157-.321-.158-.321-.16-.319-.161-.319-.163-.318-.164-.317-.166-.316-.167-.315-.168-.314-.169-.313-.171-.313-.173-.311-.173-.31-.175-.31-.177-.309-.177-.307-.179-.307-.18-.306-.182-.305-.183-.304-.184-.303-.185-.303-.187-.301-.188-.301-.189-.299-.191-.299-.191-.298-.193-.297-.194-.295-.196-.296-.196-.294-.198-.293-.199-.292-.201-.292-.201-.291-.203-.289-.203-.289-.205-.288-.206-.287-.208-.286-.208-.286-.21-.284-.21-.284-.212-.282-.213-.282-.214-.281-.215-.28-.216-.279-.218-.279-.218-.277-.22-.277-.22-.275-.222-.275-.223-.274-.224-.273-.225-.273-.225-.271-.227-.271-.228-.269-.229-.269-.23-.268-.231-.268-.232-.266-.233-.266-.234-.264-.235-.264-.236-.263-.237-.263-.238-.261-.239-.261-.24-.259-.241-.259-.242-.259-.242-.257-.244-.256-.244-.256-.246-.255-.246-.254-.248-.253-.248-.253-.249-.252-.25-.251-.251-.25-.252-.249-.252-.249-.254-.247-.254-.247-.255-.246-.256-.246-.257-.245-.258-.243-.259-.244-.259-.242-.26-.241-.261-.241-.262-.24-.263-.24-.263-.238-.264-.238-.265-.237-.266-.236-.267-.236-.267-.235-.268-.234-.269-.233-.27-.233-.27-.231-.272-.232-.271-.23-.273-.23-.273-.229-.274-.228-.275-.227-.276-.227-.276-.226-.277-.226-.278-.224-.278-.224-.279-.223-.279-.223-.281-.222-.281-.221-.282-.22-.282-.22-.283-.219-.284-.219-.284-.217-.285-.218-.285-.216-.287-.216-.286-.215-.288-.214-.288-.214-.288-.213-.29-.212-.29-.212-.29-.211-.291-.21-.292-.21-.292-.209-.293-.208-.293-.208-.294-.207-.294-.206-.295-.206-.296-.205-.296-.205-.297-.204-.297-.203-.298-.203-.298-.202-.299-.201-.299-.201-.3-.2-.3-.202-.304-.395-.6-.395-.605-.392-.607-.39-.608-.388-.611-.385-.612-.383-.614-.38-.616-.378-.617-.376-.619-.374-.621-.371-.622-.369-.624-.367-.625-.365-.627-.362-.628-.361-.629-.358-.631-.356-.632-.354-.633-.351-.634-.35-.636-.347-.636-.346-.638-.343-.639-.342-.64-.339-.641-.337-.641-.336-.643-.333-.643-.332-.645-.329-.645-.328-.646-.325-.646-.324-.647-.322-.648-.32-.649-.318-.649-.317-.649-.314-.65-.313-.651-.311-.651-.309-.651-.308-.651-.305-.652-.304-.652-.303-.652-.3-.653-.299-.652-.297-.653-.296-.653-.293-.653-.293-.652-.29-.653-.289-.653-.288-.652-.286-.652-.284-.653-.283-.651-.281-.652-.28-.651-.278-.651-.277-.65-.275-.65-.274-.65-.272-.649-.271-.648-.27-.648-.268-.648-.266-.646-.266-.646-.264-.645-.262-.644-.262-.644-.259-.642-.259-.642-.257-.641-.256-.64-.255-.638-.254-.64-.503-1.27-.498-1.267-.494-1.262-.488-1.257-.484-1.251-.48-1.246-.475-1.238-.471-1.233-.467-1.225-.463-1.218-.459-1.211-.905-2.395-.89-2.362-.876-2.325-.863-2.286-.427-1.126-.423-1.116-.42-1.104-.417-1.093-.415-1.081-.411-1.068-.409-1.056-.406-1.043-.403-1.029-.405-1.025.268.601-.475-1.2-.158-.526-.155-.508-.155-.504-.157-.501-.157-.497-.159-.494-.16-.49-.161-.486-.162-.483-.163-.48-.163-.476-.165-.472-.166-.469-.167-.466-.168-.462-.168-.458-.17-.456-.17-.452-.172-.448-.172-.445-.173-.442-.174-.438-.175-.435-.176-.432-.176-.428-.177-.426-.178-.421-.179-.419-.18-.415-.18-.412-.181-.409-.182-.406-.183-.402-.183-.399-.184-.396-.185-.393-.185-.389-.186-.387-.187-.383-.187-.381-.188-.377-.189-.374-.189-.371-.189-.368-.191-.365-.191-.362-.191-.358-.192-.356-.192-.353-.193-.35-.194-.347-.194-.344-.194-.341-.195-.338-.196-.335-.196-.332-.196-.33-.197-.326-.197-.324-.197-.321-.198-.318-.198-.315-.199-.312-.199-.31-.199-.307-.2-.304-.2-.301-.2-.299-.201-.295-.201-.294-.201-.29-.202-.288-.201-.285-.202-.283-.203-.279-.202-.278-.203-.274-.203-.272-.203-.27-.203-.267-.203-.264-.204-.262-.203-.259-.204-.257-.204-.255-.204-.251-.205-.25-.204-.247-.204-.244-.205-.242-.204-.24-.205-.237-.205-.235-.204-.233-.205-.23-.205-.228-.205-.225-.204-.224-.205-.22-.205-.219-.205-.216-.204-.215-.205-.211-.204-.21-.205-.208-.204-.205-.205-.203-.204-.201-.204-.198-.204-.197-.204-.194-.204-.193-.204-.19-.203-.188-.203-.186-.204-.184-.203-.182-.202-.18-.203-.178-.202-.176-.203-.173-.201-.172-.202-.17-.202-.168-.201-.166-.201-.164-.201-.162-.2-.16-.2-.159-.2-.156-.2-.155-.199-.152-.199-.151-.198-.149-.199-.147-.198-.146-.197-.143-.197-.142-.197-.14-.197-.138-.196-.137-.195-.135-.196-.133-.194-.131-.195-.13-.194-.128-.193-.126-.193-.125-.193-.123-.192-.121-.192-.12-.191-.118-.19-.116-.191-.115-.189-.113-.189-.112-.189-.11-.188-.109-.187-.107-.187-.105-.187-.105-.185-.102-.186-.101-.184-.1-.184-.098-.183-.096-.183-.096-.182-.093-.182-.093-.18-.091-.181-.089-.179-.088-.179-.087-.178-.086-.177-.084-.177-.082-.176-.082-.175-.08-.175-.078-.173-.078-.173-.076-.173-.075-.171-.073-.171-.073-.169-.071-.169-.07-.169-.068-.167-.068-.167-.066-.165-.065-.165-.063-.164-.063-.163-.061-.162-.061-.162-.059-.16-.058-.16-.057-.158-.055-.158-.055-.156-.054-.156-.052-.155-.051-.154-.051-.152-.049-.152-.048-.151-.047-.15-.047-.148-.045-.148-.044-.146-.043-.146-.042-.144-.041-.144-.041-.134-.037-.289-.078-.277-.072-.271-.068-.267-.065-.263-.062-.257-.058-.252-.055-.247-.051-.242-.049-.237-.046-.231-.042-.226-.04-.219-.037-.215-.034-.208-.032-.202-.029-.196-.026-.19-.025-.183-.022-.177-.02-.2-.021-.418-.043-.556-.058-.306-.031-.333-.032-.354-.033-.379-.032-.186-.015-.195-.015-.198-.015-.201-.014-.203-.014-.205-.012-.206-.012-.207-.011-.207-.01-.207-.009-.207-.007-.205-.007-.203-.005-.201-.003-.198-.003h-.195-.19l-.191.002-.193.004-.193.005-.193.006-.194.007-.193.009-.193.009-.191.011-.189.011-.188.012-.185.013-.183.014-.179.014-.176.015-.166.014-.34.032-.313.031-.292.031-.27.03-.246.028-.222.027-.359.043-.201.024-.186.024-.193.026-.198.029-.205.03-.21.033-.216.036-.222.038-.227.04-.233.044-.238.046-.244.048-.248.052-.254.055-.259.058-.263.061-.269.065-.273.068-.278.071-.282.075-.287.078-.291.082-.303.088-.142.042-.15.045-.151.047-.153.047-.153.048-.155.05-.155.05-.157.051-.157.053-.158.053-.159.055-.161.055-.161.057-.162.058-.163.059-.164.06-.164.061-.166.062-.167.064-.167.064-.168.066-.169.067-.17.068-.171.07-.171.07-.172.072-.173.073-.174.074-.175.076-.175.077-.176.078-.177.079-.178.081-.178.082-.179.083-.18.085-.18.086-.181.087-.182.088-.182.091-.183.091-.184.093-.185.094-.185.096-.185.097-.186.098-.187.1-.188.102-.188.103-.188.104-.189.106-.19.107-.19.109-.191.111-.191.112-.192.114-.192.115-.193.116-.193.119-.194.12-.194.121-.195.123-.195.125-.196.127-.196.128-.196.13-.197.131-.198.133-.197.135-.198.137-.199.138-.199.14-.199.142-.199.144-.2.145-.201.147-.2.149-.201.151-.201.153-.202.154-.202.157-.202.158-.202.16-.203.162-.203.164-.203.166-.204.168-.203.17-.204.171-.204.174-.205.176-.204.178-.205.179-.205.182-.205.184-.205.186-.205.188-.206.19-.206.192-.205.194-.206.196-.206.199-.206.201-.207.202-.206.205-.206.208-.207.209-.206.212-.207.213-.206.217-.207.218-.206.221-.207.223-.206.225-.207.227-.206.23-.207.232-.206.235-.207.237-.206.239-.206.242-.206.244-.206.247-.206.249-.206.252-.206.254-.205.256-.206.259-.205.262-.205.264-.205.266-.205.269-.205.272-.204.274-.204.277-.204.28-.204.282-.203.285-.203.287-.203.29-.202.293-.203.296-.202.298-.201.301-.202.304-.201.306-.2.31-.201.312-.2.315-.199.317-.199.321-.199.323-.198.326-.198.33-.198.332-.197.334-.196.338-.196.341-.196.344-.195.346-.194.35-.195.353-.193.355-.193.359-.192.361-.192.365-.191.368-.191.371-.19.374-.19.377-.188.38-.189.383-.187.386-.187.39-.186.393-.186.396-.184.399-.184.402-.184.406-.182.408-.182.412-.181.416-.181.418-.179.422-.179.425-.178.429-.177.431-.176.435-.175.439-.175.442-.174.445-.172.449-.172.452-.171.455-.17.459-.169.462-.168.466-.167.469-.167.473-.165.477-.164.479-.163.484-.162.486-.161.491-.16.494-.159.497-.158.502-.157.504-.156.509-.158.526.011-.077-.222.679-.408 1.026-.406 1.031-.41 1.044-.412 1.057-.415 1.07-.417 1.082-.421 1.095-.424 1.106-.427 1.117-.429 1.127-.871 2.29-.883 2.328-.898 2.365-.913 2.398-.462 1.213-.467 1.22-.47 1.227-.475 1.234-.48 1.24-.483 1.247-.488 1.253-.493 1.259-.498 1.263-.502 1.27-.507 1.271-.256.641-.257.639-.258.641-.26.642-.261.642-.262.644-.263.644-.265.645-.266.646-.268.647-.268.648-.271.648-.272.649-.273.649-.274.65-.277.65-.277.651-.279.652-.281.651-.282.652-.283.653-.286.653-.286.653-.289.653-.289.653-.292.654-.293.653-.295.654-.296.654-.298.653-.3.654-.301.654-.303.653-.305.653-.306.653-.309.653-.31.652-.311.652-.314.652-.315.652-.317.65-.319.651-.321.65-.323.649-.325.649-.326.648-.329.648-.33.646-.332.646-.334.645-.337.645-.338.643-.34.643-.342.642-.344.64-.347.64-.348.639-.35.637-.353.637-.355.635-.356.634-.359.633-.361.631-.364.631-.365.629-.368.627-.37.626-.372.625-.374.623-.377.621-.379.62-.382.618-.383.617-.386.615-.389.613-.391.611-.393.61-.395.607-.396.603-.202.305-.201.302-.201.301-.202.301-.202.3-.204.3-.203.299-.205.298-.205.299-.205.297-.206.297-.207.297-.208.296-.208.295-.209.295-.209.294-.21.294-.211.293-.212.293-.212.292-.212.291-.214.291-.214.29-.215.29-.215.289-.216.288-.217.288-.217.287-.219.287-.218.286-.22.285-.22.285-.221.284-.222.283-.222.283-.223.282-.223.281-.225.281-.225.28-.226.279-.226.279-.227.278-.228.277-.229.276-.229.276-.23.275-.231.275-.232.273-.232.273-.233.273-.234.271-.234.271-.236.27-.236.269-.236.268-.238.268-.238.267-.239.266-.24.266-.24.264-.241.264-.242.263-.243.262-.244.261-.244.261-.245.259-.246.259-.246.258-.248.258-.248.256-.249.255-.25.255-.25.254-.251.253-.253.252-.253.251-.253.25-.255.249-.255.249-.256.247-.257.247-.258.246-.258.244-.26.244-.26.243-.261.242-.262.241-.262.24-.264.239-.264.239-.265.237-.266.236-.267.235-.268.234-.268.234-.27.232-.27.231-.271.23-.272.23-.272.228-.274.227-.274.226-.276.225-.276.224-.277.223-.278.222-.279.22-.279.22-.281.219-.281.217-.282.217-.283.215-.284.214-.285.213-.286.212-.286.211-.288.21-.288.208-.289.208-.291.206-.291.205-.292.204-.292.203-.294.201-.295.201-.295.199-.297.198-.297.196-.298.196-.299.194-.3.193-.301.192-.302.191-.303.189-.303.188-.305.187-.305.185-.307.184-.307.183-.308.182-.309.18-.31.179-.311.178-.312.176-.313.175-.313.174-.315.173-.316.171-.316.169-.317.168-.319.167-.319.166-.32.164-.321.163-.322.161-.323.16-.324.159-.324.157-.326.155-.327.155-.327.153-.329.151-.329.15-.33.148-.332.147-.332.146-.333.144-.334.142-.335.141-.335.14-.337.138-.338.136-.338.135-.34.134-.34.132-.342.13-.342.129-.343.127-.344.126-.345.124-.346.122-.347.121-.348.12-.348.117-.35.117-.35.114-.352.113-.352.111-.353.11-.355.108-.355.106-.355.105-.357.103-.358.102-.359.1-.359.098-.361.096-.361.095-.362.093-.363.091-.365.09-.364.088-.366.086-.367.085-.368.083-.368.081-.37.079-.37.078-.371.075-.372.075-.373.072-.374.071-.374.068-.376.067-.376.066-.378.063-.378.062-.379.06-.38.058-.381.056-.381.055-.383.052-.383.051-.384.049-.386.048-.386.045-.386.044-.388.041-.389.04-.389.038-.39.036-.391.035-.392.032-.393.031-.394.028-.394.027-.396.025-.608.035-.625-.002-.419-.004-.417-.007-.417-.009-.416-.012-.415-.015-.414-.018-.414-.02-.412-.023-.411-.026-.411-.028-.409-.032-.409-.033-.408-.037-.406-.039-.406-.041-.405-.045-.403-.047-.403-.049-.402-.052-.401-.055-.399-.057-.399-.06-.398-.063-.396-.065-.396-.067-.395-.07-.393-.073-.393-.075-.391-.078-.39-.08-.39-.083-.388-.085-.387-.088-.386-.09-.385-.093-.383-.095-.383-.098-.382-.1-.38-.103-.379-.104-.378-.108-.377-.11-.376-.112-.375-.114-.373-.117-.372-.119-.371-.122-.37-.124-.369-.126-.367-.129-.367-.131-.365-.133-.364-.135-.362-.138-.362-.14-.36-.142-.359-.145-.358-.147-.356-.149-.355-.151-.354-.153-.353-.156-.351-.157-.35-.16-.349-.162-.348-.165-.346-.166-.345-.168-.344-.171-.342-.173-.341-.174-.34-.177-.339-.179-.337-.181-.336-.183-.334-.185-.333-.187-.332-.189-.331-.191-.329-.193-.328-.195-.326-.197-.326-.199-.324-.201-.322-.202-.321-.205-.32-.206-.318-.209-.317-.21-.316-.212-.315-.214-.313-.216-.311-.218-.31-.219-.309-.222-.308-.223-.306-.225-.305-.227-.303-.228-.302-.23-.301-.232-.299-.234-.298-.235-.296-.237-.295-.239-.294-.241-.292-.242-.291-.244-.29-.245-.288-.247-.286-.249-.286-.25-.284-.252-.282-.254-.281-.255-.28-.257-.279-.258-.276-.26-.276-.262-.274-.262-.273-.265-.271-.266-.27-.268-.269-.269-.267-.27-.266-.272-.264-.273-.263-.275-.262-.277-.26-.277-.259-.28-.257-.28-.256-.282-.254-.284-.253-.284-.252-.287-.251-.287-.248-.289-.248-.29-.246-.292-.245-.293-.243-.294-.242-.296-.241-.296-.239-.299-.237-.299-.237-.301-.235-.302-.233-.303-.232-.304-.231-.306-.229-.307-.228-.308-.227-.309-.225-.311-.223-.312-.223-.313-.221-.314-.219-.315-.218-.316-.217-.318-.215-.319-.214-.319-.213-.321-.211-.322-.209-.324-.209-.324-.207-.325-.205-.327-.204-.327-.203-.329-.201-.329-.2-.331-.199-.332-.197-.332-.196-.334-.194-.335-.193-.336-.191-.336-.19-.338-.189-.339-.188-.34-.185-.34-.185-.342-.183-.342-.182-.344-.18-.344-.179-.346-.178-.346-.176-.347-.175-.348-.173-.349-.172-.35-.171-.351-.169-.351-.167-.353-.167-.353-.165-.354-.163-.355-.162-.356-.161-.357-.16-.357-.158-.359-.156-.359-.155-.36-.154-.36-.152-.362-.151-.362-.15-.363-.148-.363-.147-.365-.145-.365-.144-.366-.143-.367-.141-.367-.14-.368-.138-.369-.137-.369-.135-.37-.134-.371-.133-.372-.131-.372-.13-.373-.129-.373-.127-.374-.125-.375-.125-.375-.123-.376-.121-.377-.12-.377-.119-.378-.117-.378-.116-.379-.114-.379-.113-.381-.111-.38-.11-.381-.109-.382-.107-.382-.106-.383-.105-.384-.103-.383-.101-.385-.101-.385-.098-.385-.098-.386-.095-.386-.095-.387-.093-.387-.092-.388-.09-.388-.089-.388-.087-.39-.086-.389-.064-.295-.271-1.132-.291-1.216-.289-1.216-.288-1.216-.287-1.217-.286-1.217-.285-1.218-.284-1.218-.282-1.218-.282-1.219-.281-1.219-.279-1.219-.278-1.22-.278-1.22-.276-1.221-.275-1.221-.274-1.221-.273-1.222-.272-1.222-.271-1.222-.27-1.223-.268-1.223-.268-1.223-.267-1.224-.265-1.224-.265-1.224-.263-1.225-.262-1.225-.262-1.225-.26-1.226-.259-1.226-.258-1.227-.257-1.227-.256-1.227-.255-1.227-.254-1.228-.252-1.228-.252-1.228-.251-1.229-.249-1.229-.249-1.23-.248-1.229-.246-1.23-.245-1.231-.245-1.23-.243-1.231-.243-1.232-.241-1.231-.24-1.232-.239-1.232-.238-1.233-.238-1.233-.236-1.233-.235-1.233-.234-1.234-.233-1.234-.232-1.234-.231-1.235-.23-1.234-.229-1.236-.227-1.235-.227-1.236-.226-1.236-.225-1.236-.224-1.237-.223-1.236-.221-1.237-.221-1.238-.22-1.237-.218-1.238-.218-1.239-.217-1.238-.216-1.239-.214-1.239-.214-1.239-.213-1.24-.211-1.239-.211-1.24-.209-1.241-.209-1.24-.208-1.241-.206-1.241-.206-1.241-.205-1.242-.203-1.242-.203-1.242-.202-1.242-.2-1.242-.2-1.243-.199-1.243-.197-1.243-.197-1.244-.196-1.243-.195-1.244-.193-1.245-.193-1.244-.192-1.244-.191-1.245-.19-1.245-.189-1.246-.187-1.245-.187-1.246-.186-1.246-.185-1.246-.184-1.246-.183-1.247-.182-1.246-.181-1.247-.181-1.248-.179-1.247-.178-1.247-.177-1.248-.176-1.248-.176-1.248-.174-1.249-.174-1.248-.172-1.249-.171-1.249-.171-1.249-.17-1.249-.168-1.25-.168-1.25-.167-1.249-.165-1.25-.165-1.251-.164-1.25-.163-1.251-.162-1.25-.161-1.251-.16-1.251-.159-1.252-.158-1.251-.158-1.252-.156-1.251-.155-1.252-.155-1.252-.153-1.252-.153-1.253-.152-1.252-.151-1.253-.149-1.253-.149-1.253-.148-1.253-.147-1.253-.146-1.254-.146-1.253-.144-1.254-.143-1.254-.143-1.254-.141-1.254-.141-1.254-.139-1.254-.139-1.255-.138-1.255-.137-1.254-.136-1.255-.135-1.255-.134-1.255-.134-1.256-.132-1.255-.132-1.256-.13-1.255-.13-1.256-.129-1.256-.128-1.256-.127-1.256-.126-1.256-.125-1.256-.124-1.257-.124-1.256-.122-1.257-.122-1.256-.12-1.257-.12-1.257-.119-1.257-.118-1.257-.117-1.257-.117-1.257-.115-1.258-.115-1.257-.113-1.258-.113-1.257-.112-1.258-.111-1.257-.11-1.258-.109-1.258-.109-1.258-.107-1.258-.107-1.258-.106-1.258-.105-1.259-.104-1.258-.103-1.258-.102-1.259-.102-1.258-.1-1.259-.1-1.258-.099-1.259-.098-1.259-.097-1.259-.096-1.258-.096-1.259-.094-1.259-.094-1.259-.093-1.259-.092-1.259-.091-1.259-.09-1.259-.09-1.259-.088-1.26-.088-1.259-.087-1.259-.086-1.259-.085-1.26-.085-1.259-.083-1.259-.083-1.26-.082-1.259-.081-1.26-.08-1.259-.08-1.259-.078-1.26-.078-1.259-.077-1.26-.076-1.259-.075-1.26-.075-1.259-.073-1.26-.073-1.26-.072-1.259-.071-1.26-.07-1.259-.07-1.26-.068-1.259-.068-1.26-.067-1.259-.067-1.26-.065-1.259-.064-1.26-.064-1.259-.063-1.259-.062-1.26-.062-1.259-.06-1.26-.06-1.259-.059-1.259-.058-1.26-.057-1.259-.057-1.259-.056-1.259-.055-1.259-.054-1.26-.053-1.259-.053-1.259-.051-1.259-.051-1.256.014.056-.019-.197-.007-.336-.006-.349-.006-.349-.004-.348-.002-.348-.002-.348v-.348-.348l.002-.347.003-.347.005-.347.005-.347.007-.346.008-.347.009-.346.01-.345.011-.346.013-.345.013-.345.015-.345.016-.344.018-.344.018-.344.019-.344.021-.344.022-.343.023-.343.024-.342.025-.343.027-.342.027-.342.029-.341.03-.341.031-.341.032-.341.033-.34.034-.341.036-.339.036-.34.038-.339.039-.339.04-.339.041-.338.042-.338.044-.338.044-.337.046-.337.046-.337.048-.337.049-.336.05-.336.051-.335.052-.336.054-.335.054-.334.055-.334.057-.334.058-.334.058-.333.06-.333.061-.333.062-.332.063-.332.064-.331.066-.332.066-.331.067-.33.069-.33.069-.33.071-.33.071-.329.073-.328.074-.329.075-.328.075-.327.077-.328.078-.327.079-.326.08-.326.081-.326.083-.326.083-.325.084-.324.085-.325.087-.324.087-.323.088-.323.09-.323.09-.322.091-.322.093-.322.093-.321.095-.321.095-.32.097-.32.097-.32.099-.319.099-.319.101-.318.101-.318.103-.317.104-.317.104-.317.106-.316.106-.316.108-.316.108-.314.11-.315.11-.314.112-.314.112-.313.113-.313.115-.312.115-.312.117-.312.117-.311.118-.31.119-.311.121-.309.121-.31.122-.308.123-.309.124-.308.125-.307.126-.307.127-.307.128-.306.128-.305.13-.306.131-.304.131-.304.133-.304.133-.303.135-.303.135-.303.136-.301.138-.302.138-.301.139-.3.14-.3.141-.299.141-.299.143-.299.144-.298.144-.297.146-.297.146-.297.147-.296.148-.295.149-.295.15-.294.151-.294.152-.294.153-.293.153-.292.155-.292.155-.292.156-.29.157-.291.158-.29.159-.289.16-.289.16-.288.162-.288.162-.287.163-.287.164-.286.165-.286.166-.285.166-.284.168-.284.168-.284.169-.283.17-.282.171-.282.172-.281.173-.281.173-.28.174-.28.176-.279.175-.278.177-.278.178-.278.178-.277.18-.276.18-.276.181-.275.181-.275.183-.274.183-.273.185-.273.185-.272.186-.272.186-.271.188-.271.188-.27.189-.269.19-.269.191-.268.191-.268.192-.267.194-.267.193-.265.195-.266.196-.265.196-.264.197-.263.198-.263.198-.262.2-.262.2-.261.201-.261.202-.26.202-.259.203-.259.204-.258.205-.257.206-.257.206-.256.207-.256.208-.255.209-.254.209-.254.21-.253.211-.252.212-.252.212-.251.213-.251.214-.25.215-.249.215-.249.216-.248.217-.247.217-.247.219-.246.219-.245.22-.245.22-.244.221-.244.222-.243.223-.242.223-.241.224-.241.225-.24.226-.24.226-.239.227-.238.227-.238.229-.236.229-.237.23-.235.23-.235.231-.234.232-.234.233-.233.233-.232.234-.231.234-.231.236-.23.236-.23.236-.228.238-.228.238-.228.239-.226.239-.226.24-.226.241-.224.241-.224.242-.223.243-.223.243-.221.245-.221.244-.221.246-.219.246-.219.246-.218.248-.218.248-.217.249-.216.249-.215.25-.215.25-.214.252-.213.252-.212.252-.212.253-.211.254-.21.255-.21.255-.209.255-.208.257-.207.257-.206.257-.206.259-.205.258-.205.26-.203.26-.203.261-.202.261-.202.262-.2.262-.2.263-.199.264-.198.265-.198.264-.197.266-.196.266-.195.267-.194.267-.194.268-.193.269-.192.269-.192.269-.19.271-.19.271-.189.271-.189.272-.187.273-.187.273-.186.274-.185.274-.184.275-.184.275-.183.276-.181.277-.182.277-.18.278-.18.278-.178.279-.178.279-.178.28-.176.281-.175.281-.175.282-.174.282-.173.283-.173.283-.171.284-.171.284-.17.285-.169.285-.168.286-.167.287-.167.287-.165.287-.165.288-.164.289-.164.289-.162.29-.161.29-.161.29-.16.292-.159.291-.158.292-.158.293-.156.293-.156.294-.154.294-.154.295-.153.295-.153.296-.151.296-.15.297-.15.297-.149.298-.148.298-.147.299-.146.299-.145.3-.144.3-.144.301-.143.301-.141.301-.141.303-.14.302-.139.303-.138.304-.138.304-.136.304-.136.305-.134.305-.134.306-.133.306-.132.307-.131.307-.13.308-.129.308-.129.308-.127.309-.127.31-.125.31-.125.31-.124.311-.123.311-.122.312-.121.312-.12.312-.119.313-.118.313-.118.314-.116.314-.115.315-.115.315-.114.315-.112.316-.112.317-.111.316-.11.317-.108.318-.108.318-.107.318-.106.319-.106.319-.104.32-.103.32-.102.32-.101.321-.101.321-.099.321-.098.322-.098.322-.096.323-.096.323-.094.324-.094.323-.092.325-.092.324-.09.325-.09.325-.089.326-.087.326-.087.326-.086.327-.084.327-.084.328-.083.328-.081.328-.081.328-.08.329-.078.329-.078.33-.077.33-.075.33-.075.331-.074.331-.072.331-.072.332-.071.332-.069.332-.069.332-.067.333-.067.334-.065.333-.065.334-.063.334-.063.335-.061.335-.06.335-.06.335-.058.336-.057.336-.056.337-.055.336-.054.337-.053.338-.052.337-.051.338-.05.338-.049.339-.048.338-.047.339-.045.34-.045.339-.043.34-.043.34-.041.341-.04.341-.04.341-.038.341-.037.341-.036.342-.035.342-.034.342-.033.343-.031.343-.031.343-.029.343-.029.344-.027.343-.026.344-.025.345-.025.344-.022.345-.022.345-.021.345-.02.346-.018.345-.018.346-.016.347-.015.346-.014.347-.013.346-.012.347-.011.348-.009.347-.009.348-.007.348-.007.348-.005.348-.004.349-.002.348-.002.337-.001-.001.002.023-.002.342.001.352.001.351.002.352.003.352.004.352.005.352.006.352.006.352.008.352.008.353.009.352.01.353.011.352.012.353.012.353.014.353.014.353.015.353.016.353.016.353.018.354.018.353.02.353.02.354.02.353.022.354.023.354.023.353.024.354.025.354.026.354.026.354.027.358.029.704.058.709.062.709.064.709.068.709.071.709.074.709.077.71.081.709.083.71.086.71.089.71.092.71.095.711.097.71.101.71.104.711.106.71.109.711.112.71.115.711.117.71.12.711.123.71.126.711.128.71.131.711.133.71.137.71.138.711.142.71.143.71.147.71.149.709.151.71.154.71.156.709.159.709.161.709.163.709.166.709.168.708.171.708.173.708.175.708.177.708.18.707.182.707.184.707.186.706.188.707.191.705.193.706.195.705.197.705.199.705.201.704.203.704.205.703.207.703.209.703.212.702.213.702.215.701.217.701.218.701.221.7.222.7.225.699.226.698.228.699.23.697.231.697.233.697.235.696.237.695.238.695.24.694.242.694.243.693.245.693.246.692.248.691.25.69.251.69.252.69.255.688.255.688.257.688.259.686.259.686.262.685.262.684.264.684.266.683.267.682.268.681.269.681.271.679.271.679.273.678.275.678.275.676.277.675.278.675.279.674.28.673.281.672.282.671.284.67.284.669.286.668.286.668.288.666.288.665.29.665.29.663.291.663.292.661.293.66.294.659.295.659.296.657.296.656.298.655.298.653.298.653.3.652.3.65.301.65.302.648.302.647.303.646.304.644.304.644.305.642.305.641.306.639.306.639.307.637.308.636.308.635.308.633.309.632.31.631.309.629.311.628.31.627.311.625.311.624.312.623.312.621.312.62.312.618.313.617.313.616.313.614.313.612.314.611.313.61.314.608.314.607.314.605.314.603.314.604.316 1.197.627 1.193.629 1.187.628 1.179.628 1.174.627 1.166.627 1.16.627 1.153.625 1.146.624 1.138.623 1.132.622 1.124.62 1.117.619 1.11.617 1.101.615 1.095.613 1.086.61 1.079.609 1.07.605 1.063.604 1.054.6 1.046.597 1.038.595 1.029.591 1.021.587 1.012.585 1.003.58.995.577.985.572.977.569.967.564.958.56.95.556.015.008.953-.517 1.197-.647.648-.348.676-.363.706-.378.735-.393.764-.407.792-.421.821-.434.848-.448.875-.461.901-.473.928-.486.954-.497.978-.51 1.004-.52 1.028-.531 1.052-.542 1.075-.552 1.099-.563 1.121-.571 1.143-.581 1.165-.59 1.186-.598 1.207-.607 1.227-.614 1.248-.622 1.266-.629 1.286-.637 1.304-.642 1.322-.649 1.34-.654 1.357-.661 1.374-.665 1.39-.67 1.407-.675 1.42-.678.718-.341.72-.342.723-.343.728-.343.731-.344.734-.345.738-.346.741-.347.744-.347.748-.347.751-.348.754-.349.757-.349.76-.349.763-.35.766-.35.769-.351.771-.35.775-.351.777-.351.78-.351.782-.351.785-.352.787-.351.79-.351.792-.351.794-.351.797-.351.799-.35.801-.35.803-.35.805-.35.807-.349.809-.349.811-.348.813-.348.814-.347.816-.347.818-.346.819-.345.821-.344.823-.344.824-.343.825-.342.826-.341.828-.34.829-.34.831-.338.831-.337.832-.336.834-.335.834-.334.835-.332.836-.331.837-.33.838-.329.838-.327.839-.325.839-.324.84-.323.84-.321.841-.32.841-.317.842-.316.842-.315.842-.312.842-.311.842-.309.842-.307.842-.305.842-.303.842-.301.842-.299.842-.296.841-.295.841-.292.841-.291.84-.287.84-.286.839-.283.839-.281.838-.278.837-.276.837-.273.835-.27.835-.268.834-.266.833-.262.833-.26.831-.257.83-.254.829-.252.827-.248.827-.245.825-.243.824-.239.823-.236.821-.233.819-.23.818-.227.817-.223.815-.22.813-.217.812-.213.81-.21.808-.206.806-.203.804-.199.799-.194.404-.098.4-.095.4-.095.398-.093.399-.093.398-.092.397-.09.397-.09.396-.089.396-.088.395-.087.395-.085.394-.085.394-.084.393-.083.392-.082.392-.081.391-.08.391-.079.39-.077.39-.077.389-.076.388-.075.388-.073.387-.073.386-.071.386-.071.385-.069.385-.068.384-.068.383-.066.383-.065.381-.064.382-.062.38-.062.38-.06.38-.06.378-.058.378-.057.378-.056.376-.055.376-.053.375-.053.375-.051.374-.05.373-.049.372-.048.372-.046.371-.045.37-.044.37-.043.368-.042.368-.04.368-.039.366-.038.366-.036.365-.036.364-.034.364-.032.363-.032.362-.03.361-.029.361-.027.359-.026.359-.025.359-.023.357-.022.357-.021.355-.02.355-.018.355-.016.353-.015.353-.014.352-.013.351-.011.35-.009.35-.008.348-.007.348-.005.347-.004.346-.002.329-.001.036.003-.007-.003.337.001.349.002.348.002.348.004.349.006.347.006.348.007.348.009.347.009.347.011.347.012.346.013.347.014.346.015.346.016.345.018.346.018.345.02.345.021.345.022.345.023.344.024.344.025.344.026.343.027.344.029.343.029.342.031.343.032.342.032.342.034.342.035.342.036.341.037.341.038.34.04.341.04.34.041.34.043.34.043.339.045.339.046.339.046.338.048.338.049.338.05.338.051.337.052.337.053.337.054.336.055.336.056.336.057.335.059.336.059.334.06.335.062.334.062.334.063.334.065.333.065.333.067.332.067.333.069.332.07.331.07.332.072.331.072.33.074.33.075.33.075.33.077.329.078.329.078.329.08.328.081.328.081.327.083.327.084.327.084.326.086.326.087.326.087.325.089.325.09.325.09.324.092.324.092.323.094.323.094.323.096.322.096.322.098.322.098.321.099.32.101.321.101.32.102.319.103.319.105.319.105.318.106.318.107.318.108.317.108.317.11.316.111.316.112.315.112.315.114.315.115.314.115.314.116.313.118.313.118.313.119.312.12.311.121.312.122.31.123.311.124.309.125.31.125.309.127.308.127.308.129.308.129.307.13.307.131.306.132.306.133.305.134.305.134.305.136.304.136.303.138.303.138.303.139.302.14.301.141.302.142.3.142.3.144.3.144.299.145.299.147.298.147.298.147.297.149.297.15.296.15.296.152.295.152.295.153.294.154.294.154.293.156.293.157.292.157.292.158.291.159.291.16.29.161.289.161.289.163.289.163.288.164.288.165.287.165.286.167.286.167.285.168.285.169.285.17.284.171.283.171.282.173.283.173.281.174.281.175.281.175.28.176.279.178.279.178.278.178.278.18.277.18.277.182.276.182.275.182.275.184.275.184.273.185.274.186.272.187.272.188.272.188.271.189.27.19.269.19.27.192.268.192.268.193.267.194.267.194.266.195.266.196.265.197.264.198.264.198.263.199.262.2.262.201.262.201.26.202.26.203.26.203.259.205.258.205.258.206.257.206.256.208.256.208.255.208.254.21.254.21.253.211.253.212.252.212.251.213.25.214.25.215.25.215.248.216.248.217.248.218.247.218.246.219.245.219.245.221.244.221.243.221.243.223.242.223.242.224.24.225.24.225.24.226.238.226.239.228.237.228.237.229.236.229.235.23.235.231.233.231.234.232.232.233.232.234.231.234.231.235.23.235.229.237.228.237.228.237.227.238.226.239.225.24.225.24.224.241.224.241.222.242.222.243.221.244.221.244.22.245.219.245.218.246.217.247.217.247.216.248.216.249.214.249.214.25.213.251.213.251.211.252.211.252.21.253.21.254.208.254.208.255.207.256.207.256.205.257.205.257.204.259.203.258.203.259.201.26.201.261.201.261.199.262.199.262.197.263.197.263.197.265.195.264.195.266.194.265.193.267.192.267.192.268.19.268.19.269.189.269.189.27.187.271.187.271.186.272.185.272.184.273.183.274.183.274.182.274.181.275.18.276.179.276.178.277.178.278.177.278.176.278.175.279.174.28.174.28.172.281.172.281.171.282.17.282.169.283.168.284.168.284.167.284.165.286.165.285.164.286.163.287.163.287.161.288.161.288.159.289.159.289.158.29.157.291.156.291.156.291.154.292.154.292.152.293.152.294.151.294.15.294.149.295.148.296.147.295.147.297.145.297.145.297.143.298.143.299.142.299.141.299.14.3.139.3.138.301.137.302.136.302.135.302.135.303.133.303.133.304.132.304.13.305.13.305.129.305.128.306.126.307.126.307.125.307.124.308.123.309.123.308.121.31.12.309.119.311.118.31.118.311.116.312.115.312.115.312.113.313.113.313.111.314.111.314.109.315.109.315.107.315.107.316.105.316.105.317.103.317.103.317.101.318.101.319.099.318.099.319.097.32.097.32.096.32.094.321.093.321.093.322.091.322.091.322.089.323.088.323.088.323.086.324.085.325.085.324.083.325.082.326.081.326.08.326.079.326.078.327.077.328.076.327.075.328.073.329.073.328.072.33.07.329.07.33.068.33.067.331.067.33.065.332.064.331.063.332.062.332.061.333.06.333.059.333.057.334.057.334.055.334.055.335.053.334.052.336.051.335.05.336.049.336.048.337.047.337.045.337.045.337.043.338.042.338.041.338.04.339.039.339.038.339.037.34.035.34.034.34.034.34.032.341.031.341.029.341.029.342.028.341.026.342.025.343.024.342.023.343.022.343.021.344.019.344.019.344.017.344.016.344.015.345.013.345.013.345.011.346.011.345.009.346.007.347.007.346.006.347.004.347.003.347.002.347.001.348-.001.348-.001.348-.003.348-.004.348-.005.349-.007.349-.007.336.002-.163-.012.416zm-109.121-95.578-.282.002-.284.003-.285.004-.287.005-.288.007-.29.008-.291.009-.293.01-.294.012-.296.013-.297.014-.298.015-.3.016-.302.018-.303.018-.304.02-.306.021-.307.023-.308.023-.31.025-.311.026-.312.027-.314.028-.315.029-.316.031-.317.032-.319.032-.32.034-.321.036-.323.036-.324.037-.325.039-.326.04-.328.041-.328.042-.33.043-.331.044-.332.046-.333.046-.335.048-.335.049-.337.05-.338.051-.338.052-.34.053-.341.054-.342.056-.344.056-.344.058-.345.058-.346.06-.347.061-.349.062-.349.063-.35.064-.352.065-.352.066-.353.067-.354.068-.355.069-.356.07-.357.071-.358.073-.359.073-.359.074-.361.075-.361.076-.363.078-.363.078-.364.079-.365.08-.366.082-.366.082-.367.083-.369.084-.369.085-.369.086-.371.087-.371.088-.372.088-.37.089-.751.183-.751.186-.753.19-.757.193-.759.196-.761.201-.765.203-.767.207-.769.211-.772.213-.774.217-.776.221-.778.223-.781.227-.782.23-.785.233-.786.235-.788.239-.791.242-.791.245-.794.248-.795.251-.796.253-.799.256-.799.259-.801.261-.802.265-.803.266-.805.27-.805.271-.807.275-.808.276-.808.279-.81.282-.81.283-.811.286-.811.288-.812.291-.813.292-.813.295-.814.296-.814.299-.814.3-.814.302-.815.305-.815.306-.815.308-.814.309-.815.311-.815.313-.814.315-.815.316-.814.317-.813.32-.813.32-.813.322-.812.323-.812.325-.811.326-.81.327-.809.328-.809.329-.807.331-.807.332-.806.332-.804.334-.804.334-.802.335-.801.337-.8.337-.799.337-.797.339-.795.339-.794.34-.792.34-.791.341-.789.341-.787.342-.786.342-.783.343-.782.343-.779.343-.778.343-.775.344-.773.344-.771.344-.769.344-.766.344-.764.344-.762.343-.759.344-.756.344-.754.344-.751.343-.748.343-.745.342-.743.343-.739.342-.737.341-.734.341-.73.341-.727.34-.724.339-.721.339-.718.338-.714.337-.71.336-.708.336-.702.334-1.397.667-1.382.663-1.365.658-1.35.654-1.334.649-1.317.643-1.3.638-1.282.631-1.263.626-1.246.618-1.226.612-1.206.604-1.187.596-1.166.588-1.145.58-1.124.571-1.102.562-1.08.553-1.057.543-1.034.532-1.011.523-.986.511-.961.5-.937.489-.911.477-.886.465-.859.452-.832.44-.804.426-.778.413-.748.398-.721.385-.691.37-.661.355-.63.339-1.173.634-1.046.568-.917.5-.784.43-.648.357-.507.281-.363.201-.298.166-3.656-6.548 3.656 6.548-1.185.533-1.259.32-1.295.098-1.293-.127-1.252-.348-1.173-.559-1.82-1.07-1.855-1.088-.94-.55-.948-.554-.957-.558-.966-.562-.974-.566-.982-.57-.991-.573-.998-.576-1.007-.58-1.014-.582-1.022-.586-1.03-.588-1.038-.59-1.045-.594-1.053-.595-1.059-.598-1.068-.6-1.074-.602-1.081-.603-1.088-.605-1.096-.607-1.102-.608-1.108-.609-1.115-.61-1.122-.611-1.128-.612-1.135-.613-1.14-.613-1.147-.613-1.152-.614-1.159-.613-1.164-.614-1.172-.614-.586-.305-.588-.307-.59-.306-.591-.306-.593-.306-.594-.306-.595-.305-.597-.306-.598-.305-.599-.305-.601-.304-.601-.304-.603-.304-.605-.304-.605-.303-.607-.303-.608-.303-.609-.302-.61-.302-.611-.301-.613-.301-.614-.3-.615-.3-.616-.3-.617-.298-.618-.299-.619-.298-.62-.297-.622-.296-.622-.296-.624-.296-.624-.294-.626-.294-.626-.294-.628-.292-.628-.292-.629-.292-.631-.29-.631-.29-.632-.288-.633-.289-.634-.287-.635-.286-.635-.286-.637-.284-.637-.284-.638-.283-.639-.282-.64-.281-.641-.28-.641-.279-.642-.278-.643-.277-.644-.276-.644-.274-.645-.274-.646-.273-.646-.271-.647-.271-.648-.269-.648-.268-.649-.267-.65-.266-.65-.264-.651-.264-.652-.262-.652-.261-.652-.259-.653-.258-.654-.257-.654-.255-.655-.255-.655-.252-.655-.252-.656-.25-.657-.248-.657-.247-.657-.246-.658-.244-.658-.243-.659-.241-.659-.239-.659-.238-.659-.237-.66-.235-.661-.233-.66-.231-.661-.23-.661-.229-.662-.226-.661-.225-.662-.224-.662-.221-.663-.22-.662-.218-.663-.216-.663-.214-.663-.213-.663-.211-.663-.209-.664-.207-.663-.205-.664-.203-.663-.202-.664-.199-.664-.198-.664-.195-.664-.194-.664-.191-.663-.19-.664-.187-.664-.185-.664-.184-.664-.181-.663-.179-.664-.177-.663-.175-.664-.173-.663-.17-.663-.169-.663-.166-.662-.164-.663-.161-.662-.16-.662-.157-.662-.155-.662-.152-.662-.151-.661-.147-.661-.146-.66-.143-.66-.141-.66-.138-.66-.136-.659-.134-.659-.131-.659-.128-.658-.127-.658-.123-.657-.121-.657-.119-.656-.116-.656-.113-.656-.111-.655-.108-.655-.106-.654-.103-.653-.101-.653-.097-.653-.095-.651-.093-.652-.089-.65-.087-.651-.085-.649-.081-.649-.079-.648-.076-.648-.073-.646-.07-.647-.067-.645-.065-.645-.062-.644-.059-.643-.056-.647-.053-.317-.025-.32-.025-.321-.024-.32-.023-.32-.023-.32-.022-.32-.021-.32-.02-.319-.02-.319-.018-.319-.018-.319-.018-.319-.016-.318-.016-.318-.015-.318-.015-.318-.013-.317-.013-.317-.012-.317-.011-.317-.011-.317-.009-.316-.009-.316-.009-.316-.007-.316-.007-.315-.006-.315-.005-.315-.004-.315-.003-.314-.003-.315-.002-.314-.001-.312-.001-.301.001-.3.001-.3.003-.299.003-.3.004-.299.006-.299.006-.298.007-.299.009-.298.009-.299.01-.298.011-.298.012-.297.014-.298.014-.297.015-.297.015-.297.017-.297.018-.296.019-.296.02-.296.02-.296.022-.296.023-.295.023-.296.025-.295.025-.294.026-.295.027-.294.029-.294.029-.294.03-.294.031-.294.032-.293.033-.293.033-.293.035-.292.036-.293.036-.292.038-.292.038-.291.039-.292.04-.291.041-.291.042-.291.043-.29.044-.29.045-.29.046-.29.046-.289.047-.29.049-.289.049-.288.05-.289.051-.288.052-.288.053-.288.054-.287.054-.287.056-.287.056-.287.057-.286.059-.286.059-.286.06-.285.06-.286.062-.285.063-.284.063-.285.064-.284.065-.284.066-.283.067-.284.068-.283.069-.283.069-.282.071-.282.071-.282.072-.282.073-.281.074-.281.075-.28.075-.281.076-.28.078-.28.078-.279.079-.279.079-.279.081-.278.082-.279.082-.278.083-.277.084-.277.085-.277.085-.277.087-.276.087-.276.088-.276.089-.275.09-.275.091-.275.091-.274.093-.274.093-.274.094-.273.095-.273.095-.272.097-.273.097-.272.098-.271.099-.271.099-.271.101-.271.101-.27.102-.27.103-.269.104-.269.104-.269.106-.268.106-.268.107-.268.107-.267.109-.267.109-.267.11-.266.111-.266.112-.265.112-.265.114-.265.114-.264.114-.264.116-.263.116-.263.118-.263.117-.262.119-.262.12-.262.12-.261.121-.261.122-.26.122-.26.124-.259.124-.26.125-.258.125-.259.127-.257.127-.258.128-.257.128-.257.13-.256.13-.256.131-.255.131-.255.133-.255.133-.254.134-.253.134-.254.136-.253.136-.252.137-.252.137-.251.139-.252.139-.25.139-.25.141-.25.141-.25.142-.248.143-.249.143-.248.145-.247.144-.247.146-.247.146-.246.147-.246.148-.245.149-.245.149-.244.15-.244.15-.243.152-.243.152-.243.152-.242.154-.241.154-.241.155-.24.155-.241.156-.239.157-.239.158-.239.158-.238.159-.237.16-.237.16-.237.161-.236.162-.236.162-.235.163-.235.164-.234.165-.233.165-.233.165-.233.167-.232.167-.232.168-.231.168-.23.169-.23.17-.23.171-.229.171-.228.172-.228.172-.227.173-.227.174-.227.174-.225.175-.226.176-.224.176-.225.177-.223.178-.224.178-.222.179-.222.18-.222.18-.221.181-.22.181-.22.183-.219.182-.219.184-.218.184-.218.184-.217.186-.216.185-.216.187-.216.187-.214.188-.215.188-.213.189-.213.19-.213.19-.212.191-.211.191-.211.192-.21.193-.21.193-.209.194-.208.194-.208.195-.207.196-.207.196-.206.197-.206.197-.205.198-.204.199-.204.199-.203.2-.202.2-.202.201-.201.202-.201.202-.2.203-.199.203-.199.204-.199.204-.197.205-.197.206-.196.206-.196.206-.195.208-.195.207-.194.209-.193.209-.192.209-.192.21-.192.211-.19.211-.19.212-.19.212-.188.213-.189.213-.187.214-.187.214-.186.215-.186.216-.184.216-.185.216-.183.217-.183.218-.182.218-.182.219-.181.219-.18.22-.18.22-.178.221-.179.221-.177.222-.177.222-.176.223-.176.224-.175.223-.174.225-.173.225-.173.225-.172.226-.172.227-.171.227-.17.227-.169.228-.169.228-.168.229-.167.23-.167.23-.165.23-.166.231-.164.231-.164.232-.163.233-.162.232-.162.234-.161.233-.16.235-.16.235-.158.235-.159.235-.157.237-.157.236-.155.237-.156.238-.154.238-.154.238-.153.239-.152.24-.152.24-.15.24-.15.241-.15.241-.148.242-.148.242-.147.243-.147.243-.145.243-.145.244-.144.244-.144.245-.142.245-.142.246-.141.246-.14.247-.14.247-.139.247-.138.248-.137.248-.137.249-.135.249-.135.25-.135.25-.133.25-.133.251-.131.251-.132.252-.13.252-.129.252-.129.253-.128.253-.127.254-.127.254-.125.254-.125.255-.124.256-.124.255-.122.256-.122.257-.121.257-.12.257-.119.258-.118.258-.118.258-.117.259-.116.259-.115.26-.114.26-.114.26-.113.261-.112.261-.111.261-.11.262-.11.262-.108.263-.108.263-.107.263-.107.264-.105.264-.105.264-.103.265-.103.265-.102.266-.101.265-.101.267-.099.266-.099.267-.098.267-.097.268-.096.268-.095.268-.095.269-.094.269-.092.269-.092.27-.091.27-.091.27-.089.271-.088.271-.088.271-.087.272-.086.272-.085.272-.084.273-.083.273-.083.273-.081.274-.081.274-.08.274-.079.275-.078.275-.077.275-.076.275-.076.276-.074.276-.074.277-.073.277-.072.277-.071.277-.07.278-.069.278-.068.278-.068.279-.066.279-.066.279-.064.279-.064.28-.063.28-.062.281-.061.28-.06.281-.06.281-.058.282-.057.282-.057.282-.055.282-.055.283-.054.283-.053.283-.052.283-.051.284-.05.284-.049.285-.048.284-.047.285-.047.285-.045.286-.045.285-.043.286-.043.286-.041.287-.041.287-.04.287-.039.287-.038.287-.036.288-.036.288-.035.288-.035.289-.033.289-.032.289-.031.289-.03.289-.03.29-.028.29-.027.29-.027.291-.025.291-.024.291-.024.291-.022.291-.022.292-.02.292-.02.292-.019.292-.017.293-.017.293-.015.293-.015.293-.014.294-.012.293-.012.294-.011.295-.009.294-.009.295-.008.295-.006.295-.006.295-.005.296-.003.295-.003.296-.002.296v.297.296l.001.297.003.297.003.297.005.298.005.297.005.241.048 1.182.051 1.249.053 1.25.053 1.25.053 1.249.055 1.25.055 1.25.056 1.25.057 1.249.058 1.25.058 1.25.06 1.25.06 1.25.061 1.249.061 1.25.063 1.25.063 1.25.064 1.25.065 1.25.066 1.25.066 1.249.068 1.25.068 1.25.069 1.25.069 1.25.071 1.249.071 1.25.073 1.25.073 1.25.073 1.25.075 1.249.076 1.25.076 1.25.077 1.249.078 1.25.079 1.249.079 1.25.081 1.25.081 1.249.082 1.249.083 1.25.084 1.249.084 1.25.086 1.249.086 1.249.087 1.249.088 1.249.089 1.25.089 1.249.091 1.249.091 1.249.092 1.248.093 1.249.094 1.249.094 1.249.096 1.248.096 1.249.098 1.249.098 1.248.099 1.248.099 1.249.101 1.248.101 1.248.103 1.248.103 1.248.104 1.248.105 1.248.106 1.248.106 1.247.108 1.248.108 1.247.109 1.248.11 1.247.111 1.247.112 1.247.113 1.248.114 1.246.114 1.247.115 1.247.117 1.247.117 1.246.118 1.247.118 1.246.12 1.246.121 1.246.121 1.246.123 1.246.123 1.246.124 1.245.125 1.246.126 1.245.127 1.245.127 1.245.129 1.245.129 1.245.131 1.245.131 1.245.132 1.244.133 1.244.134 1.245.135 1.244.136 1.244.137 1.243.137 1.244.139 1.243.139 1.244.14 1.243.141 1.243.142 1.243.143 1.242.144 1.243.145 1.242.146 1.243.147 1.242.147 1.242.149 1.241.149 1.242.15 1.241.152 1.242.152 1.241.153 1.241.154 1.24.155 1.241.156 1.24.157 1.24.157 1.24.159 1.24.16 1.24.16 1.239.162 1.239.162 1.24.163 1.238.165 1.239.165 1.239.166 1.238.167 1.238.168 1.238.169 1.237.17 1.238.171 1.237.171 1.237.173 1.237.174 1.237.175 1.236.175 1.236.177 1.236.177 1.236.179 1.236.179 1.235.18 1.235.182 1.235.182 1.235.183 1.234.184 1.234.186 1.234.186 1.234.187 1.233.188 1.234.189 1.233.19 1.233.191 1.232.192 1.232.193 1.232.193 1.232.195 1.232.196 1.231.197 1.231.198 1.231.198 1.23.2 1.231.201 1.23.202 1.23.202 1.229.204 1.229.205 1.229.205 1.229.207 1.228.207 1.229.209 1.227.21 1.228.21 1.227.212 1.228.212 1.226.214 1.227.214 1.226.216 1.226.216 1.226.218 1.225.218 1.225.22 1.225.221 1.224.221 1.225.223 1.223.223 1.224.225 1.223.225 1.223.227 1.223.228 1.222.228 1.223.23 1.221.231 1.222.231 1.221.233 1.221.234 1.22.234 1.221.236 1.219.237 1.22.238 1.219.238 1.219.24 1.219.241 1.218.242 1.218.243 1.218.244 1.217.245 1.217.246 1.216.247 1.217.248 1.216.249 1.215.25 1.216.251 1.214.253 1.215.253 1.214.254 1.214.255 1.214.257 1.213.257 1.213.259 1.212.259 1.212.261 1.212.261 1.211.263 1.211.264 1.211.265 1.21.265 1.21.267 1.21.268 1.209.269 1.209.27 1.208.271 1.208.273 1.208.273 1.207.274 1.207.275 1.207.277 1.206.277 1.205.279 1.206.279 1.205.281 1.204.282 1.205.283 1.203.284 1.204.285 1.203.286 1.202.287 1.203.308 1.285.093.43.074.334.075.335.076.334.078.333.078.333.08.332.081.332.083.332.083.331.085.33.086.331.087.329.088.329.09.328.09.328.092.328.093.326.095.327.095.325.097.325.097.325.099.324.1.323.102.323.102.322.104.321.105.321.105.32.108.319.108.319.109.318.111.317.112.317.112.316.114.315.116.315.116.314.117.313.119.312.12.312.121.311.122.31.123.309.124.309.125.307.127.307.127.307.129.305.13.304.131.304.132.303.133.302.134.301.136.3.136.3.138.298.138.298.14.297.141.296.142.295.143.294.144.293.145.292.146.291.148.291.148.289.149.288.151.288.151.286.153.286.154.284.154.283.156.283.157.281.158.281.159.279.16.278.16.278.162.276.163.275.165.274.165.273.166.272.167.271.168.27.169.268.17.268.171.266.172.266.174.264.174.263.175.262.176.26.177.26.178.258.179.257.18.256.181.255.182.254.183.252.184.251.185.25.186.249.187.248.187.246.189.245.19.244.19.242.192.242.192.24.194.238.194.238.196.236.196.235.197.233.198.232.199.231.2.23.201.228.201.227.203.226.204.224.204.223.205.222.207.22.207.219.208.217.209.216.209.215.211.213.212.212.212.211.213.209.215.208.215.206.216.205.216.203.218.202.219.201.219.199.22.197.221.197.222.194.223.194.224.192.224.19.226.189.226.187.227.186.228.185.228.182.23.182.23.18.231.178.233.177.232.175.234.174.235.173.235.17.236.17.237.167.238.166.239.165.239.163.241.162.241.16.242.158.242.157.244.155.244.154.246.152.246.15.247.149.247.147.249.146.249.144.25.143.251.14.252.14.253.137.253.136.254.135.255.132.256.131.257.13.258.128.258.126.259.124.26.123.261.122.262.119.262.118.264.116.264.115.265.112.266.112.267.109.268.108.268.106.269.104.27.103.272.101.271.099.273.097.274.096.274.094.276.092.276.091.277.089.278.087.279.085.28.083.28.082.282.08.282.078.284.077.284.074.285.073.286.071.287.069.288.067.289.066.29.063.291.062.291.06.293.058.293.057.295.054.295.053.297.05.297.049.298.047.3.045.3.043.301.041.302.039.304.038.304.035.305.033.306.032.307.029.309.028.309.025.31.024.311.021.313.02.313.017.314.016.316.013.316.012.317.009.319.007.319.005.321.004h.116l.111-.006.323-.021.321-.022.321-.023.319-.025.319-.026.317-.028.317-.03.316-.03.315-.033.314-.033.313-.036.313-.036.311-.039.311-.039.309-.041.309-.043.308-.044.307-.045.306-.047.306-.048.304-.05.304-.051.302-.053.302-.054.302-.055.3-.057.299-.058.299-.059.298-.061.297-.062.296-.064.295-.065.295-.066.294-.068.293-.069.292-.071.292-.071.29-.074.29-.074.289-.076.289-.077.287-.078.287-.08.286-.081.286-.083.285-.084.283-.085.284-.086.282-.088.282-.089.281-.09.28-.092.28-.093.279-.094.278-.095.277-.097.277-.098.276-.099.275-.101.275-.102.274-.103.273-.104.273-.106.272-.107.271-.108.271-.109.27-.111.269-.112.269-.113.268-.115.267-.115.267-.117.266-.118.266-.119.264-.121.265-.122.263-.123.263-.124.262-.125.262-.127.261-.128.261-.129.259-.13.26-.131.258-.133.258-.134.258-.135.257-.136.256-.137.255-.139.256-.14.254-.141.254-.142.253-.143.253-.144.252-.146.252-.147.251-.148.25-.149.25-.15.249-.151.249-.153.248-.153.248-.155.247-.156.246-.157.246-.159.245-.159.245-.161.245-.161.243-.163.243-.164.243-.165.242-.166.242-.167.241-.168.24-.17.24-.17.239-.172.239-.173.239-.174.237-.175.238-.176.236-.177.237-.178.235-.179.235-.18.235-.182.234-.182.234-.184.233-.185.232-.185.232-.187.232-.188.231-.189.23-.189.23-.191.23-.192.229-.193.228-.194.228-.195.227-.196.227-.197.227-.199.226-.199.225-.2.225-.201.224-.202.224-.203.223-.205.223-.205.223-.206.221-.207.222-.208.221-.209.22-.21.22-.211.219-.212.219-.213.219-.214.217-.215.218-.216.217-.217.216-.218.216-.218.215-.22.215-.22.215-.222.214-.222.213-.224.213-.224.213-.225.212-.226.211-.227.211-.228.211-.229.21-.229.209-.231.209-.231.209-.233.208-.233.208-.234.207-.235.206-.236.207-.236.205-.238.206-.238.204-.239.205-.24.203-.241.204-.242.203-.242.202-.244.202-.244.201-.245.201-.246.201-.246.2-.248.199-.248.199-.249.199-.25.198-.251.198-.251.197-.252.197-.253.196-.254.196-.254.195-.255.195-.256.194-.257.194-.257.193-.259.193-.258.193-.26.192-.26.192-.262.191-.261.19-.263.191-.263.189-.264.19-.265.188-.265.189-.266.188-.267.187-.267.187-.268.187-.269.186-.269.186-.27.185-.271.185-.271.184-.272.184-.273.183-.273.183-.274.183-.274.179-.272.366-.556.361-.554.359-.557.357-.559.356-.562.354-.564.352-.566.351-.568.348-.57.347-.573.346-.574.343-.577.342-.579.341-.58.338-.583.337-.584.335-.586.334-.588.331-.59.331-.591.328-.593.327-.595.325-.597.324-.598.322-.599.321-.601.319-.602.317-.604.316-.605.314-.607.312-.608.311-.609.31-.61.308-.611.306-.613.305-.613.304-.615.302-.616.3-.616.299-.618.298-.618.296-.619.294-.62.294-.621.291-.622.291-.622.289-.623.287-.623.286-.624.285-.625.283-.625.282-.626.281-.626.279-.626.278-.627.277-.627.275-.627.274-.627.273-.628.272-.627.27-.628.269-.628.268-.628.266-.628.266-.628.264-.627.262-.628.262-.627.261-.628.259-.627.258-.626.257-.626.256-.626.255-.626.254-.625.252-.625.252-.624.25-.623.248-.621.497-1.246.491-1.241.487-1.238.484-1.234.479-1.231.476-1.226.472-1.222.469-1.217.465-1.213.461-1.207.458-1.2.908-2.387.896-2.359.885-2.331.874-2.299.434-1.139.431-1.13.43-1.121.427-1.112.426-1.103.424-1.093.422-1.083.421-1.073.419-1.063.297-.746.075-.249.173-.566.175-.562.176-.559.178-.555.178-.552.181-.549.181-.545.183-.542.184-.538.186-.535.187-.532.188-.528.189-.525.191-.522.192-.519.194-.515.194-.512.196-.508.197-.505.198-.502.2-.499.201-.496.201-.492.203-.489.205-.486.205-.483.207-.479.207-.477.209-.473.21-.47.211-.467.213-.464.213-.46.214-.458.216-.454.216-.452.218-.448.218-.445.22-.442.22-.439.222-.436.222-.433.224-.43.225-.427.225-.423.226-.421.228-.418.228-.415.229-.412.23-.409.231-.406.232-.403.233-.4.234-.397.234-.394.235-.391.236-.389.237-.385.238-.383.238-.379.24-.377.24-.374.241-.371.241-.369.242-.365.243-.363.244-.36.244-.357.245-.354.246-.351.246-.349.247-.346.248-.343.248-.34.249-.338.25-.335.25-.332.25-.33.251-.326.252-.324.252-.322.253-.318.253-.316.254-.314.254-.31.255-.308.255-.306.256-.302.256-.301.256-.297.257-.295.258-.292.257-.29.258-.287.258-.285.259-.282.259-.28.259-.277.26-.274.26-.272.26-.269.26-.267.261-.265.261-.262.261-.259.261-.257.262-.255.261-.252.262-.25.262-.247.262-.245.263-.242.262-.24.262-.238.263-.235.262-.233.263-.231.263-.228.262-.226.263-.223.263-.222.262-.218.263-.217.262-.214.263-.213.262-.209.263-.208.262-.205.262-.203.262-.201.262-.199.261-.196.262-.194.261-.193.261-.189.261-.188.261-.186.26-.183.26-.181.26-.18.26-.177.259-.175.259-.173.258-.17.259-.169.257-.167.258-.165.257-.162.257-.161.256-.158.256-.157.255-.155.255-.152.255-.151.254-.149.253-.147.253-.145.253-.143.252-.141.251-.139.251-.137.25-.136.249-.133.249-.132.249-.13.247-.128.248-.126.246-.125.246-.122.245-.121.244-.12.243-.117.243-.116.242-.114.242-.112.24-.111.24-.108.239-.108.238-.105.237-.104.237-.102.235-.101.235-.099.234-.097.233-.096.232-.095.231-.092.23-.091.229-.09.228-.088.228-.087.226-.085.225-.084.224-.082.223-.08.223-.08.221-.077.22-.077.219-.075.218-.073.216-.073.216-.07.214-.07.214-.068.212-.067.211-.065.21-.065.208-.062.215-.064.404-.117.406-.115.401-.11.396-.104.391-.101.385-.095.38-.091.375-.087.368-.083.363-.078.357-.075.351-.07.345-.067.339-.063.333-.06.326-.055.321-.053.313-.049.307-.046.301-.043.293-.039.287-.037.26-.032.381-.046.258-.031.304-.035.342-.038.377-.04.41-.04.432-.041.237-.02.236-.02.243-.019.25-.019.254-.017.261-.017.265-.016.271-.015.276-.014.28-.012.285-.011.289-.009.293-.008.297-.005.301-.003.304-.002.307.002.305.003.302.006.299.007.296.009.291.011.288.012.284.014.28.014.275.016.27.017.265.017.26.019.253.018.248.02.247.02.456.039.433.039.4.039.366.037 1.001.105.256.026.294.033.299.036.306.039.313.043.318.046.324.049.33.053.337.056.342.061.348.064.353.068.36.072.364.076.371.081.376.085.381.089.386.094.392.099.396.103.394.106.21.058.204.058.205.058.206.06.208.061.208.062.21.064.211.065.212.067.213.067.214.069.216.071.216.072.218.073.218.075.22.076.22.077.222.079.223.081.223.082.225.083.226.085.226.087.228.088.228.089.23.091.23.093.231.094.232.096.233.098.234.099.234.1.236.103.236.104.237.105.238.108.239.109.239.11.241.113.24.114.242.116.242.117.244.12.243.121.245.123.245.125.246.126.246.129.247.13.248.132.248.134.248.136.25.137.25.14.25.141.251.144.252.145.251.147.253.149.253.151.253.153.254.155.254.158.255.159.255.161.255.163.256.165.256.167.257.169.257.172.257.173.257.175.258.178.258.18.258.181.259.184.259.186.259.189.259.19.259.193.26.194.26.197.26.2.26.201.26.203.26.206.26.208.261.211.26.212.261.215.26.217.261.22.26.222.261.224.261.226.26.229.261.231.26.233.261.236.26.238.26.241.26.243.26.245.26.248.26.25.259.253.26.255.259.257.259.26.258.262.259.265.258.268.258.27.258.272.257.275.257.277.257.28.256.283.257.285.255.287.256.29.255.293.254.295.255.298.253.301.254.303.253.306.252.308.252.311.252.314.251.316.25.319.25.321.25.325.249.327.248.329.248.333.247.335.247.338.246.34.246.344.244.346.245.349.243.351.243.354.242.358.242.36.24.362.241.366.239.368.239.371.237.375.238.376.236.38.235.383.235.385.234.389.233.391.233.394.231.397.231.4.23.403.229.406.228.409.227.412.226.414.225.418.225.421.223.423.223.427.221.43.221.432.219.436.219.439.218.442.216.445.216.447.214.451.214.455.212.457.212.46.21.463.209.467.208.47.207.472.206.476.205.479.203.483.203.485.201.489.2.491.199.496.198.498.196.501.196.505.194.508.193.511.191.515.191.517.189.521.188.525.186.527.186.531.183.535.183.537.181.541.18.545.179.547.177.552.176.554.175.558.173.561.172.565.074.25.295.746.416 1.061.417 1.072.419 1.081.42 1.092.423 1.101.423 1.111.426 1.119.428 1.128.431 1.137.866 2.297.878 2.327.888 2.356.901 2.384.454 1.199.458 1.205.461 1.211.465 1.216.468 1.22.472 1.225.475 1.229.48 1.232.483 1.236.487 1.24.492 1.244.247.62.248.623.25.623.25.624.252.624.252.625.254.625.255.625.256.626.257.626.259.626.259.627.261.627.262.627.263.627.264.627.266.627.267.627.268.627.269.627.27.626.272.627.273.626.275.626.275.626.278.626.278.625.28.625.281.624.282.624.284.623.285.623.287.622.287.621.29.621.291.62.292.619.293.618.295.618.297.617.298.616.299.614.301.614.303.613.304.612.305.61.307.61.309.608.31.607.311.605.313.605.315.603.316.601.318.6.32.599.321.597.322.596.325.594.325.592.328.591.329.589.331.587.332.585.334.584.336.582.337.58.339.577.341.576.343.574.344.572.346.569.347.568.35.565.351.563.352.561.355.558.356.556.358.554.36.551.364.553.179.27.182.273.182.272.183.272.183.27.184.271.184.269.185.269.185.269.185.267.186.267.186.267.187.265.187.265.188.264.188.264.189.263.189.262.19.261.19.261.19.26.191.259.191.259.192.258.192.257.193.256.193.256.194.254.194.254.195.254.195.252.195.252.196.251.197.25.197.25.197.248.198.248.198.247.199.246.199.246.2.244.2.244.201.243.201.242.202.242.202.24.202.24.203.239.204.238.204.237.204.236.205.236.205.234.206.234.207.233.206.232.208.231.207.23.209.229.208.228.21.228.209.226.211.226.21.225.211.224.212.223.212.222.213.221.213.22.213.219.214.219.215.217.215.216.215.216.216.214.217.214.217.212.217.212.218.211.219.209.219.209.219.208.22.207.22.205.221.205.222.204.222.203.222.202.223.2.223.2.224.199.224.198.225.196.226.196.226.195.226.193.227.193.227.192.228.19.229.19.229.188.229.187.23.187.23.185.231.184.232.183.232.182.232.182.233.179.234.179.234.178.235.177.235.175.235.175.237.173.236.173.237.171.238.17.238.169.239.168.24.167.239.166.241.164.241.164.241.162.242.162.243.16.243.159.244.158.244.156.245.156.245.154.246.154.246.152.247.151.248.15.248.148.248.148.249.146.25.146.251.144.25.143.252.141.252.141.253.139.253.138.254.137.254.136.255.135.256.133.256.133.257.131.257.13.258.128.258.128.26.126.259.125.261.124.261.123.261.121.263.12.263.119.263.118.264.116.265.116.265.114.266.113.267.111.267.11.268.11.269.107.269.107.27.105.271.104.271.103.272.102.273.1.273.099.274.098.275.096.275.095.277.094.276.093.278.091.278.09.279.089.28.087.28.087.281.084.282.084.282.082.284.081.284.08.285.078.285.077.286.075.287.075.288.073.289.071.289.07.29.069.291.068.292.066.292.065.293.063.294.062.295.061.296.059.296.058.298.057.298.055.299.054.299.052.301.051.302.049.302.048.303.047.304.045.305.044.305.043.307.041.307.039.309.038.309.037.31.035.311.034.312.032.312.031.314.029.314.028.316.026.316.025.318.023.318.022.319.02.119.007h1.735l.337-.001.324-.003.323-.005.323-.007.32-.008.32-.011.319-.013.317-.014.317-.016.315-.019.315-.02.313-.022.312-.024.311-.026.31-.027.308-.03.308-.031.307-.033.305-.035.305-.037.303-.038.303-.041.301-.042.3-.044.3-.046.298-.047.297-.05.296-.051.295-.053.294-.054.293-.056.292-.059.291-.059.29-.062.289-.063.288-.065.287-.067.285-.068.285-.071.284-.071.283-.074.282-.075.281-.077.28-.079.279-.08.278-.082.277-.083.276-.086.275-.087.275-.088.273-.09.272-.092.271-.094.271-.095.269-.097.269-.098.267-.1.267-.102.266-.103.265-.105.264-.106.263-.109.262-.109.261-.112.26-.113.259-.114.259-.116.257-.118.257-.119.256-.121.255-.122.254-.124.253-.126.252-.127.252-.129.25-.13.25-.132.249-.133.247-.135.247-.137.247-.138.245-.14.244-.141.244-.143.243-.144.241-.146.241-.147.241-.149.239-.15.238-.152.238-.154.237-.155.236-.157.235-.158.234-.159.233-.161.233-.163.231-.164.231-.166.23-.167.229-.169.229-.17.227-.172.227-.173.225-.175.225-.176.224-.178.224-.179.222-.181.222-.182.22-.184.22-.185.219-.186.218-.189.218-.189.216-.191.216-.193.214-.194.214-.196.213-.197.213-.198.211-.2.21-.201.21-.203.209-.204.208-.206.207-.207.206-.209.205-.21.205-.212.204-.213.202-.214.202-.216.201-.217.2-.219.2-.22.198-.222.198-.223.196-.224.196-.226.195-.227.194-.228.193-.23.192-.232.191-.233.191-.234.189-.235.189-.237.188-.239.186-.239.186-.241.185-.243.184-.244.184-.245.182-.246.181-.248.181-.249.179-.251.179-.252.177-.253.177-.255.176-.256.175-.257.174-.258.173-.26.172-.262.171-.262.17-.264.169-.265.169-.266.167-.268.166-.269.166-.27.164-.272.163-.273.163-.274.162-.275.16-.277.16-.277.158-.28.158-.28.157-.281.155-.283.155-.284.154-.286.152-.286.152-.288.151-.289.149-.29.149-.291.148-.293.146-.294.146-.294.145-.297.143-.297.143-.298.142-.3.14-.301.14-.301.138-.304.138-.304.136-.305.136-.307.134-.307.134-.309.132-.31.131-.311.13-.312.13-.313.128-.314.127-.316.126-.316.125-.317.124-.319.123-.32.121-.32.121-.322.12-.323.118-.324.118-.325.116-.326.116-.327.114-.328.113-.329.112-.33.111-.331.11-.332.109-.333.108-.334.106-.335.106-.336.104-.337.104-.338.102-.339.101-.339.1-.341.099-.342.098-.342.097-.344.095-.345.095-.345.093-.346.092-.348.091-.348.09-.349.089-.35.088-.351.086-.351.086-.353.084-.353.083-.355.082-.355.081-.356.08-.357.078-.357.07-.323.491-2.425.497-2.471.495-2.47.492-2.47.489-2.471.488-2.47.484-2.471.483-2.471.479-2.471.477-2.471.475-2.471.472-2.471.47-2.472.467-2.471.464-2.472.462-2.472.46-2.471.457-2.472.454-2.472.452-2.472.449-2.473.447-2.472.444-2.472.441-2.473.439-2.472.436-2.473.433-2.472.431-2.473.429-2.473.425-2.473.423-2.473.421-2.473.417-2.473.415-2.473.413-2.473.41-2.474.407-2.473.404-2.473.402-2.474.399-2.473.396-2.474.393-2.473.391-2.474.388-2.474.386-2.473.383-2.474.379-2.474.378-2.474.374-2.474.372-2.474.369-2.474.366-2.473.363-2.474.361-2.474.358-2.474.355-2.474.352-2.475.349-2.474.347-2.474.344-2.474.341-2.474.338-2.474.335-2.474.333-2.474.329-2.474.327-2.474.324-2.474.321-2.474.318-2.475.315-2.474.313-2.474.309-2.474.307-2.474.304-2.474.3-2.474.298-2.474.295-2.474.292-2.473.289-2.474.286-2.474.284-2.474.28-2.474.277-2.473.275-2.474.271-2.474.268-2.473.266-2.474.262-2.473.26-2.474.256-2.473.254-2.475.125-1.235.125-1.237.124-1.237.123-1.236.123-1.237.122-1.236.121-1.237.12-1.237.12-1.236.118-1.237.119-1.236.117-1.237.116-1.236.116-1.236.115-1.237.114-1.236.114-1.237.112-1.236.112-1.236.111-1.237.111-1.236.109-1.236.109-1.237.108-1.236.107-1.236.107-1.236.106-1.237.105-1.236.104-1.236.103-1.236.103-1.236.102-1.236.101-1.236.1-1.236.1-1.236.099-1.236.098-1.236.097-1.236.096-1.236.096-1.236.095-1.236.094-1.236.093-1.236.092-1.236.092-1.235.091-1.236.09-1.236.09-1.236.088-1.235.088-1.236.087-1.236.086-1.235.085-1.236.085-1.235.084-1.236.083-1.235.082-1.236.081-1.235.081-1.236.08-1.235.079-1.235.078-1.236.078-1.235.076-1.235.076-1.235.075-1.236.074-1.235.074-1.235.072-1.235.072-1.235.071-1.235.07-1.235.07-1.235.061-1.111.004-.185.006-.297.004-.298.004-.297.002-.297.001-.297.001-.296-.001-.297-.002-.296-.002-.296-.004-.295-.005-.296-.005-.295-.007-.295-.008-.295-.008-.295-.01-.294-.011-.295-.011-.293-.013-.294-.014-.294-.014-.293-.016-.293-.017-.293-.017-.293-.019-.292-.019-.292-.021-.292-.021-.292-.023-.291-.023-.291-.025-.291-.025-.291-.027-.291-.027-.29-.028-.29-.029-.29-.031-.289-.031-.289-.032-.289-.033-.289-.034-.289-.035-.288-.036-.288-.037-.288-.038-.287-.039-.287-.04-.287-.04-.287-.042-.287-.043-.286-.043-.286-.045-.285-.045-.286-.046-.285-.048-.285-.048-.284-.049-.285-.05-.284-.051-.283-.052-.284-.053-.283-.054-.283-.054-.283-.056-.282-.056-.282-.058-.282-.058-.282-.059-.281-.061-.281-.061-.28-.062-.281-.063-.28-.063-.28-.065-.279-.066-.279-.066-.279-.068-.279-.068-.278-.069-.278-.07-.278-.071-.277-.072-.277-.073-.277-.073-.277-.075-.276-.075-.276-.077-.275-.077-.275-.078-.275-.079-.275-.08-.274-.08-.274-.082-.274-.082-.273-.084-.273-.084-.273-.085-.272-.086-.272-.087-.272-.087-.271-.089-.271-.089-.271-.09-.27-.091-.27-.092-.27-.093-.269-.094-.269-.094-.269-.096-.268-.096-.268-.097-.268-.098-.267-.098-.267-.1-.266-.1-.266-.101-.266-.103-.266-.102-.265-.104-.265-.105-.264-.105-.264-.106-.264-.107-.263-.108-.263-.109-.263-.109-.262-.111-.262-.111-.261-.112-.261-.113-.261-.113-.26-.115-.26-.115-.26-.116-.259-.117-.259-.117-.258-.119-.258-.119-.258-.12-.257-.121-.257-.122-.257-.122-.256-.123-.255-.124-.256-.125-.254-.126-.255-.126-.254-.127-.254-.128-.253-.129-.253-.13-.252-.13-.252-.131-.252-.132-.251-.133-.251-.133-.25-.134-.25-.135-.25-.136-.249-.137-.249-.137-.248-.138-.248-.139-.247-.139-.247-.141-.247-.141-.246-.142-.246-.142-.245-.144-.245-.144-.244-.145-.244-.145-.243-.146-.243-.148-.243-.147-.242-.149-.242-.149-.241-.15-.241-.151-.24-.152-.24-.152-.24-.153-.238-.154-.239-.154-.238-.155-.238-.156-.237-.157-.236-.157-.236-.158-.236-.159-.235-.16-.235-.16-.234-.161-.234-.161-.234-.163-.232-.163-.233-.164-.232-.164-.231-.165-.231-.166-.23-.167-.23-.167-.23-.168-.229-.169-.228-.169-.228-.17-.227-.171-.227-.171-.227-.172-.226-.173-.225-.174-.225-.174-.224-.175-.224-.175-.224-.177-.223-.176-.222-.178-.222-.178-.221-.179-.221-.18-.22-.18-.22-.181-.219-.181-.219-.183-.218-.183-.218-.183-.217-.184-.216-.185-.216-.186-.216-.186-.215-.187-.214-.187-.214-.188-.213-.189-.213-.189-.212-.19-.212-.191-.211-.191-.211-.192-.21-.193-.209-.193-.209-.194-.209-.194-.207-.196-.208-.195-.206-.197-.206-.197-.206-.197-.205-.198-.204-.199-.204-.2-.203-.2-.203-.2-.202-.202-.202-.202-.201-.202-.2-.203-.2-.204-.199-.204-.199-.205-.198-.205-.197-.207-.197-.206-.196-.208-.196-.207-.195-.209-.194-.209-.194-.21-.193-.21-.193-.21-.192-.212-.191-.212-.191-.212-.19-.213-.19-.214-.189-.214-.188-.215-.188-.216-.187-.215-.187-.217-.185-.217-.186-.218-.184-.218-.184-.219-.184-.219-.182-.22-.183-.22-.181-.221-.181-.222-.18-.222-.18-.222-.179-.223-.178-.224-.178-.224-.177-.225-.176-.225-.176-.226-.175-.226-.174-.227-.174-.228-.173-.228-.172-.228-.172-.229-.171-.23-.171-.23-.169-.23-.17-.231-.168-.232-.168-.232-.167-.232-.166-.233-.166-.234-.165-.234-.165-.235-.164-.235-.163-.236-.162-.236-.162-.236-.161-.237-.16-.238-.16-.238-.159-.239-.158-.239-.158-.239-.157-.24-.156-.241-.155-.241-.155-.241-.154-.242-.154-.243-.152-.242-.152-.244-.152-.244-.15-.244-.15-.245-.149-.245-.149-.246-.148-.246-.147-.246-.146-.247-.146-.248-.144-.248-.145-.248-.143-.249-.143-.25-.142-.249-.141-.25-.14-.251-.14-.251-.139-.252-.139-.252-.137-.252-.137-.253-.136-.253-.136-.254-.134-.254-.134-.255-.133-.255-.133-.255-.131-.256-.131-.256-.13-.257-.13-.257-.128-.257-.128-.258-.127-.258-.127-.259-.125-.259-.125-.26-.124-.26-.124-.26-.122-.261-.122-.261-.121-.261-.12-.262-.12-.263-.118-.262-.118-.264-.118-.263-.116-.264-.115-.264-.115-.265-.114-.265-.114-.265-.112-.266-.112-.266-.111-.267-.11-.267-.109-.267-.108-.267-.108-.268-.107-.269-.106-.268-.105-.27-.105-.269-.104-.27-.103-.27-.102-.271-.101-.27-.1-.272-.1-.271-.099-.272-.098-.272-.097-.273-.097-.273-.095-.273-.095-.274-.094-.274-.093-.274-.092-.275-.092-.275-.091-.275-.089-.276-.089-.276-.089-.276-.087-.276-.086-.277-.086-.278-.085-.277-.084-.278-.083-.278-.082-.279-.082-.279-.081-.279-.079-.279-.079-.28-.078-.28-.078-.28-.076-.281-.075-.281-.075-.281-.074-.282-.073-.282-.072-.282-.071-.282-.071-.283-.069-.283-.069-.283-.068-.284-.066-.284-.066-.284-.066-.284-.064-.285-.063-.285-.063-.285-.062-.286-.06-.286-.06-.286-.059-.286-.058-.287-.058-.287-.056-.287-.056-.287-.054-.288-.054-.288-.053-.288-.052-.288-.051-.289-.05-.289-.049-.289-.048-.29-.048-.29-.046-.29-.046-.29-.045-.29-.044-.291-.043-.291-.042-.291-.041-.291-.04-.292-.039-.292-.038-.292-.038-.292-.036-.293-.036-.293-.035-.293-.033-.293-.033-.294-.032-.293-.031-.294-.03-.294-.029-.295-.028-.294-.028-.295-.026-.295-.025-.295-.025-.296-.023-.295-.023-.296-.022-.296-.02-.297-.02-.296-.019-.297-.018-.297-.016-.297-.016-.297-.015-.297-.014-.298-.013-.298-.013-.298-.011-.298-.01-.299-.009-.298-.008-.299-.008-.299-.006-.299-.005-.3-.005-.299-.003-.3-.003-.3-.001-.297-.001z"/></g></svg>