<svg height="41" viewBox="0 0 40 41" width="40" xmlns="http://www.w3.org/2000/svg"><g fill="#326273" transform="translate(0 .713262)"><path d="m16.7272727 8.37206613c0-4.61622846-3.7520559-8.37206613-8.36363634-8.37206613-4.61158042 0-8.36363636 3.75583767-8.36363636 8.37206613 0 3.95032717 2.75099301 7.26244537 6.43356643 8.13829227v1.521784h-1.28671328v9.0160713h.64335664v10.3040814c0 1.4206752 1.15418182 2.5760203 2.57342657 2.5760203 1.41924476 0 2.57342654-1.1553451 2.57342654-2.5760203v-10.3040814h.6433567v-9.0160713h-1.2867133v-1.521784c3.6825734-.8758469 6.4335664-4.1873211 6.4335664-8.13829227zm-7.07692305 28.98022897c0 .7103376-.57709091 1.2880101-1.28671329 1.2880101-.70962237 0-1.28671328-.5776725-1.28671328-1.2880101v-10.3040814h2.57342657zm.64335665-14.168112h-1.28671329v1.2880102h1.28671329v1.2880102h-3.86013987v-1.2880102h1.28671329v-1.2880102h-1.28671329v-1.2880101h3.86013987zm0-2.5760203h-3.86013987v-1.2880102h3.86013987zm-2.57342658-2.5760204v-1.3208544c.21295105.0167441.4259021.0328443.64335664.0328443.21745455 0 .4304056-.0161002.64335665-.0328443v1.3208544zm.64335664-2.5760203c-3.90195804 0-7.07692307-3.1781651-7.07692307-7.08405597 0-3.90589085 3.17496503-7.08405596 7.07692307-7.08405596s7.07692304 3.17816511 7.07692304 7.08405596c0 3.90589087-3.174965 7.08405597-7.07692304 7.08405597z"/><path d="m8.2707303 2.5432048c-1.02931124 0-2.04511278.27660891-2.93739697.79859668l.65489928 1.09751275c.69349846-.40662784 1.48349484-.62141401 2.28249769-.62141401 2.4825701 0 4.5032367 2.00127179 4.5032367 4.46143394 0 .79158585-.2167987 1.57361149-.6278799 2.26194704l1.1084396.6488199c.5268787-.8852759.8060794-1.89164796.8060794-2.91076694 0-3.16251932-2.597081-5.73612936-5.7898758-5.73612936z"/><path d="m10.7390401 12.0913772c-.6934984.4066578-1.48349482.6214598-2.28249767.6214598-2.48257007 0-4.50323671-2.0014193-4.50323671-4.46176277 0-.7916442.21679869-1.57372748.62787986-2.26211375l-1.10843954-.64823039c-.5268787.88470382-.80607937 1.89115003-.80607937 2.91034414 0 3.16275247 2.59708093 5.73655217 5.78987576 5.73655217 1.02931124 0 2.04511277-.2766293 2.93739697-.7986555z"/><path d="m33.3232848 10.4271397c-1.3330303 0-2.6628484.4207124-3.8442666 1.2166028-.6963879.4694535-1.479503.7073869-2.327503.7073869s-1.6311152-.2379334-2.3275031-.7080282c-1.1820606-.7952491-2.5112363-1.2159615-3.8442666-1.2159615-3.6817334 0-6.6767152 2.98988-6.6767152 6.6653417 0 4.1622311 1.2540121 8.170543 3.6271273 11.5920381 1.4608727 2.1067687 2.5176606 4.436079 3.1408121 6.9218737l.6867515 2.744892c.2325576.9286457 1.0651394 1.5770302 2.0236364 1.5770302 1.1499394 0 2.0853091-.9337763 2.0853091-2.0817569v-8.1795216c0-.7073869.5762545-1.2826598 1.2848485-1.2826598.7085939 0 1.2848484.5752729 1.2848484 1.2826598v8.1795216c0 1.1479806.9353697 2.0817569 2.0853091 2.0817569.958497 0 1.7910788-.6483845 2.022994-1.5770302l.6867515-2.7442507c.6231515-2.486436 1.679297-4.8151049 3.1408121-6.9218737 2.3737576-3.4221364 3.6277697-7.4304483 3.6277697-11.5926794 0-3.6754617-2.9949818-6.6653417-6.6767152-6.6653417zm1.9928 17.5275463c-1.5495272 2.2343934-2.6699151 4.7041549-3.3303272 7.3413035l-.6867515 2.7442507c-.0899394.3565794-.4092243.6054154-.7773334.6054154-.4413454 0-.8004606-.3585034-.8004606-.7990971v-8.1795216c0-1.4147738-1.1525091-2.5653196-2.5696969-2.5653196-1.4171879 0-2.569697 1.1505458-2.569697 2.5653196v8.1795216c0 .4405937-.3591152.7990971-.8004606.7990971-.3681091 0-.687394-.248836-.7773334-.6054154l-.6867515-2.744892c-.6597697-2.6365073-1.7801575-5.1062688-3.3303272-7.3413035-2.2240728-3.2053669-3.3990667-6.9616361-3.3990667-10.8615633 0-2.9680748 2.4187273-5.3826819 5.3918667-5.3826819 1.076703 0 2.1566181.3450355 3.1253939.9966267.9128848.6156767 1.9375515.927363 3.0463758.927363 1.1088242 0 2.1334909-.3116863 3.0463757-.9267217.9687758-.6522325 2.0493333-.997268 3.1253939-.997268 2.9731394 0 5.3918667 2.4146071 5.3918667 5.3826819 0 3.8999272-1.1749939 7.6561964-3.3990667 10.8622046z"/><path d="m30.7961107 13.7333059c-1.112939.78552-2.4154374 1.2004357-3.766129 1.2004357-1.3506915 0-2.6525474-.4149157-3.7654863-1.1997643l-.7190409 1.1131557c1.3262737.9352387 2.8768059 1.4293777 4.4845272 1.4293777 1.6077214 0 3.1582535-.494139 4.4851698-1.4300491z"/></g></svg>